<?xml version="1.0" encoding="utf-8"?>
<!-- Generator: Adobe Illustrator 19.0.0, SVG Export Plug-In . SVG Version: 6.00 Build 0)  -->
<svg version="1.1" id="layer" xmlns="http://www.w3.org/2000/svg" xmlns:xlink="http://www.w3.org/1999/xlink" x="0px" y="0px"
	 viewBox="-153 -46 652 652" style="enable-background:new -153 -46 652 652;" xml:space="preserve">
<style type="text/css">
	.st0{fill:#043C59;}
</style>
<g>
	<g>
		<g>
			<path class="st0" d="M33.1,344.3h-7.4c-1.4,0-2.2-0.3-2.9-1.4l-48.3-110.7v-0.8c-0.3-0.3-1.4-1.4-2.2-1.4h-32.9
				c-1.4,0-2.2,1.1-2.9,1.7l-41.2,98.5l-16.8,12.8c-1.7,1.1-2.9,1.1-4.6,1.1h-3.2c-1.4,0-2.2,1.1-2.2,2.2c0,1.4,1.1,2.2,2.2,2.2
				h51.6c1.4,0,2.2-1.1,2.2-2.2c0-1.4-1.1-2.2-2.2-2.2h-4.6c-2.9,0-5.1-1.1-6.8-2.9l-7.4-9c-1.1-1.1-1.4-2.9-1.1-4.3l6.8-16.2
				c0.3-1.1,1.4-1.7,2.2-1.7h36.9c1.1,0,1.7,1.1,2.2,1.4l12.5,29.3c0.3,0.3,0.3,0.3,0.3,1.1c0,1.4,0,2.2-2.2,2.2h-7.4
				c-1.4,0-2.2,1.1-2.2,2.2c0,1.4,1.1,2.2,2.2,2.2h79.8c1.1,0,1.7-1.1,1.7-2.2C35,345.1,33.9,344.3,33.1,344.3z M-55.3,304.6h-29.3
				c-1.1,0-1.7-1.1-1.7-1.7c0-0.3,0-1.1,0-1.1h0.3l14.3-35.5c0.3-0.3,1.1-0.3,1.4-0.3c0.3,0,1.1,0,1.1,0.3l15.4,35.5
				c0.3,0,0.3,0.3,0.3,1.1C-53.5,303.9-54.3,304.6-55.3,304.6z"/>
			<path class="st0" d="M212.5,299.7c-1.1-0.3-5.1-3.2-10.8-3.2c-2.2,0-12.8,5.1-12.8,13.6c0,5.7,9.7,16.8,13.9,27.9
				c1.4,4.6-1.7,8.2-6,8.2c-4.6,0-5.1-2.9-10.8-9c-1.7-2.2-5.1,1.7-5.1,3.6c0,1.7,6,7.9,13.6,7.9c8.2,0,15.7-6.5,15.7-14.3
				c0-6.5-14.3-23.6-14.3-30.7c0-3.6,4.3-4.3,5.1-4.3c1.1,0,5.1,1.1,6.8,4.6c2.2,3.2,3.2,4.3,4.6,3.6c1.4-0.3,1.4-1.1,3.2-3.2
				C216.8,303.9,214.2,301.1,212.5,299.7z"/>
			<path class="st0" d="M253,302.2c0-1.7-2.9-4.3-8.2-4.6c-12.8-1.4-28.3,25.5-28.3,35.5c0,11.4,4.3,17.3,11.4,17.3
				c3.2,0,6.8-2.9,11.1-6.8c4.6-4.6,7.4-8.2,7.4-9.7c0-1.1-1.1-1.1-1.4-1.1c-1.7,0-1.1,0.3-5.1,5.7c-3.2,5.1-6.5,6.5-7.9,6.5
				c-3.2,0-6.5-3.6-6.5-11.1c0-13.9,7.4-31.5,14.3-31.5c4.6,0,6.5,4.3,9,4.6C250.2,307.1,253,304.2,253,302.2z"/>
			<path class="st0" d="M71.4,297.8c-12.5,0-35.8,23.3-35.8,40.9c0,5.7,1.7,10.8,6,10.8c6.5,0,9.3-4.3,18.2-12.2c0,0,0,0,0.3,0v0.3
				l-7.4,38c-1.4,3.6-1.4,3.2-4.3,3.6c-1.7,0.3-4.3,0-4.6,0.3c-1.1,0-1.4,0.3-1.4,1.4c0,0.3,1.4,1.4,1.7,1.4c2.2,0,22.2,0,25,0
				c1.4,0,1.7-1.4,1.7-1.7c0-0.3-0.3-1.1-0.3-1.1c-1.1-0.3-1.4-0.3-2.2-0.3c-2.2,0-6.8,0-6.8-1.7c0.3-3.2,4.3-20.1,15-68.4
				C80,295.4,72.8,297.8,71.4,297.8z M64.3,321.5c-1.1,9-11.4,20.7-16.2,20.7c-1.4,0-1.4-2.2-1.4-6.5c0-10.5,9.3-32.6,19.6-32.6
				C70.3,303.1,64.6,317.9,64.3,321.5z"/>
			<path class="st0" d="M133.3,330.4c-1.1,0-1.4,1.1-5.1,5.1c-4.6,5.1-4.3,4.6-4.6,4.6c-1.1,0-1.4-1.1-1.4-1.7
				c0.3-4.6,9-38.6,9-40.1c0-0.3-1.7-1.4-4.3-1.4c-3.2,0-3.2,0.3-3.6,1.7c-5.1,19-23.6,42.6-26.9,42.6c-1.1,0-1.1-1.1-1.1-2.2
				c0-5.1,7.9-31.2,7.9-37.2c0.3-5.1-4.3-6.5-7.4-4.3c-6.8,5.1-15.4,14.3-15.4,15.7c0,0.3,0.3,0.3,1.4,0.3c0.3,0,1.7,0,6-4.6
				c2.9-3.2,3.2-3.6,4.3-3.6c1.4,0,1.1,1.1,1.1,1.4c0,4.3-7.9,29.3-7.9,36.9c0,3.2,3.6,5.1,5.7,5.1c8.2,0,18.7-16.8,25-26.4l0.3-0.3
				l0.3,0.3c-1.7,9.7-3.6,17.6-3.6,22.2c0,1.7,1.7,4.3,4.3,4.3c4.6,0,17.6-15.7,17.6-17.3C134.7,330.7,133.8,330.4,133.3,330.4z"/>
			<path class="st0" d="M385.1,330.4c-1.1,0-1.4,1.1-5.7,5.1c-4.6,5.1-4.3,4.6-4.6,4.6c-0.3,0-1.1-1.1-1.1-1.7
				c0.3-4.6,9-38.6,9-40.1c0-0.3-1.7-1.4-4.6-1.4c-2.9,0-3.2,0.3-3.6,1.7c-4.6,19-23.3,42.6-26.4,42.6c-1.4,0-1.4-1.1-1.4-2.2
				c0-5.1,8.2-31.2,8.2-37.2c0-5.1-4.6-6.5-7.9-4.3c-6.5,5.1-15,14.3-15,15.7c0,0.3,0.3,0.3,1.1,0.3c1.1,0,2.2,0,6.5-4.6
				c2.9-3.2,3.2-3.6,4.3-3.6c1.4,0,0.3,1.1,0.3,1.4c0,4.3-7.4,29.3-7.4,36.9c0,3.2,3.6,5.1,5.7,5.1c8.2,0,18.7-16.8,25-26.4
				c0,0,0-0.3,0.3-0.3v0.3c-1.4,9.7-3.2,17.6-3.2,22.2c0,1.7,1.4,4.3,3.6,4.3c5.1,0,17.6-15.7,17.6-17.3
				C385.9,330.7,385.4,330.4,385.1,330.4z"/>
			<path class="st0" d="M302.8,330.4c-1.1,0-1.1,1.1-5.1,5.1c-4.6,5.1-4.3,4.6-4.6,4.6c-1.1,0-1.4-1.1-1.1-1.7
				c0-4.6,8.2-38.6,8.2-40.1c0-0.3-1.7-1.4-4.3-1.4c-3.2,0-3.2,0.3-3.6,1.7c-5.1,19-23.6,42.6-26.9,42.6c-1.1,0-1.1-1.1-1.1-2.2
				c0-5.1,7.9-31.2,8.2-37.2c0-5.1-4.6-6.5-7.9-4.3c-6.8,5.1-15.4,14.3-15.4,15.7c0,0.3,0.3,0.3,1.4,0.3c0.3,0,1.7,0,6-4.6
				c2.9-3.2,3.2-3.6,4.6-3.6c1.1,0,0.3,1.1,0.3,1.4c0,4.3-7.9,29.3-7.9,36.9c0,3.2,4.3,5.1,5.7,5.1c8.2,0,18.7-16.8,25-26.4
				c0.3,0,0.3-0.3,0.3-0.3l0.3,0.3c-1.7,9.7-3.6,17.6-3.6,22.2c0,1.7,1.7,4.3,4.3,4.3c4.6,0,17.6-15.7,17.6-17.3
				C304.2,330.7,303.1,330.4,302.8,330.4z"/>
			<path class="st0" d="M467.1,333.2c-1.1,0-1.4,0.3-6,5.1c-2.9,2.9-4.3,3.2-4.6,3.2c-1.1,0-1.1-1.1-1.1-1.7
				c0.3-4.3,9.7-29.3,9.7-36.1c0-3.6-3.6-5.1-5.7-5.1c-9.7,0-20.1,19.6-25.5,25h-0.3c0,0-0.3,0-0.3-0.3c2.2-9.7,4.3-16.8,4.3-20.7
				c0-2.9-3.2-4.3-5.7-4.3c-8.2,0-19,17.3-25.5,26.4c0,0.3,0,0.3-0.3,0.3v-0.3c1.4-9.7,4.3-18.7,4.3-23.3c0-1.7-1.7-3.6-4.3-3.6
				c-4.3,0-18.2,15-18.2,16.2c0,0.3,0.3,1.1,1.4,1.1c1.1,0,1.4,0,5.7-4.6c4.6-4.6,4.3-4.3,4.6-4.3s1.1,1.1,1.1,1.7
				c-0.3,4.6-10.5,38.6-10.5,39.4c0,1.1,1.4,2.9,3.6,2.9c3.2,0,4.3,0,4.6-1.7c4.6-19,24.4-42.6,27.6-42.6c0.3,0,0.3,0,0.3,0
				c1.1,0,1.1,0.3,1.1,1.7c0,4.3-9.7,39.4-9.7,41.5c0,1.1,2.2,1.4,4.6,1.4c3.2,0,3.2,0,3.6-1.7c4.6-19,24.7-42.3,28.3-42.3
				c1.4,0,1.4,0.3,1.4,2.2c0,4.3-10.5,30.7-10.5,37.2c0,4.6,4.6,6,7.9,3.6c6.5-5.1,15.4-13.6,15.4-15
				C468.5,333.7,468.2,333.2,467.1,333.2z"/>
			<path class="st0" d="M182.7,332.6c-0.3-0.3-1.1-1.4-4.6,2.2c-4.6,5.1-5.7,6.5-6.5,6.5c-1.1,0-1.1-0.3-1.1-1.7
				c0-1.4-0.3-1.1,1.1-7.4l6.8-29.8c0.3-2.9-2.2-5.1-5.1-5.1c-14.3,0-36.9,24.4-36.9,40.9c0,6,2.2,10.8,5.7,10.8
				c6.8,0,19-12.8,19-12.8s0,0,0.3,0c0,0,0.3,0,0,0.3c0,0-0.3,4.6-0.3,8.2c0,1.4,1.7,4.3,4.3,4.3c5.7,0,15.4-12.2,17.6-15
				C183.2,333.7,183.2,333.2,182.7,332.6z M165.6,319.6c-0.3,10.5-12.2,21.9-16.2,21.9c-2.2,0-2.9-1.4-2.9-3.6
				c0-9.7,7.9-34.7,20.4-34.7C171,302.8,165.9,317.1,165.6,319.6z"/>
			<path class="st0" d="M117.6,364.4c-5.7,0-9.7,4.3-9.7,9.7c0,5.7,4.3,9.7,9.7,9.7c5.7,0,9.7-4.3,9.7-9.7
				C127.3,368.4,122.9,364.4,117.6,364.4z M117.6,380.9c-3.6,0-6.8-3.2-6.8-6.8s3.2-6.8,6.8-6.8c3.6,0,6.8,3.2,6.8,6.8
				C124.4,377.7,121.1,380.9,117.6,380.9z"/>
			<path class="st0" d="M187.8,364.4c-5.1,0-9.7,4.3-9.7,9.7c0,5.7,4.6,9.7,9.7,9.7c5.7,0,9.7-4.3,9.7-9.7
				C197.4,368.4,193.2,364.4,187.8,364.4z M187.8,380.9c-3.6,0-6.8-3.2-6.8-6.8s3.2-6.8,6.8-6.8c4.3,0,7.4,3.2,7.4,6.8
				C194.9,377.7,191.7,380.9,187.8,380.9z"/>
			<path class="st0" d="M93.3,365.2h-2.9v17.9h15v-2.5H93.3V365.2z"/>
			<path class="st0" d="M146.6,379.5v-0.3l-11.1-13.9h-2.9v17.9h2.5v-14.7l0.3,0.8l10.8,13.9h3.2v-17.9h-2.9
				C146.6,365.2,146.6,379.5,146.6,379.5z"/>
			<path class="st0" d="M216.8,365.2v14.3v-0.3l-11.1-13.9h-2.5v17.9h2.2v-14.7v0.8l11.1,13.9h3.2v-17.9H216.8z"/>
			<path class="st0" d="M165.1,365.2h-9.3v17.6h9.3c5.1,0,7.9-2.9,7.9-9C173.1,368.1,170.5,365.2,165.1,365.2z M165.1,380.6h-6.5
				v-12.8h6.5c3.6,0,5.7,2.2,5.7,6.5C170.8,378.4,169.1,380.6,165.1,380.6z"/>
			<path class="st0" d="M324.9,303.1c0.3-1.7,1.7-2.9,3.2-2.9h5.9c1.4,0,3.2-1.1,3.2-1.7c0-1.1-1.1-1.7-1.7-1.7h-6.2
				c-1.1,0-1.7-1.1-1.7-1.7c0-0.3,0-0.3,0-0.3v-0.3c1.7-10.5,2.2-12.2-0.3-12.2c-5.1,0-5.1,0.3-5.7,2.2l-3.2,9.7v0.3
				c-0.3,1.4-1.4,2.2-3.2,2.2H310c-1.1,0-2.9,1.1-2.9,1.7c0,1.1,1.1,1.7,1.7,1.7h5.1c1.4,0,2.2,1.1,2.2,1.7c0,0,0,0.3-0.3,0.3
				c-6,29.3-9.3,36.1-9.3,42c0,2.9,1.7,4.3,5.1,4.3c3.6,0,17.6-14.3,17.6-16.2c0-0.3,0-0.3-0.3-0.3c-1.4,0-1.7-0.3-5.7,3.6
				c-3.6,3.6-4.6,4.6-5.7,4.6c-1.1,0-1.1-1.7-0.3-2.9C317.5,334.3,318.9,329.3,324.9,303.1z"/>
			<path class="st0" d="M210.8,201.8c0.3,0,0.3-0.3,0-0.3V201.8z"/>
			<path class="st0" d="M221.8,226.2c-5.7-1.7-12.2,0.3-13.9,1.4c-1.4,0.3-1.4,0.3,0,0c1.7-0.3,3.6-1.4,7.9-1.4c6,0,9.7,2.2,9.7,6
				l-1.1,1.7h1.1c-0.3,1.7-0.3,3.2-0.3,4.3c0.3,1.4,0,1.7-1.4,2.9c-1.4,1.4-3.6,2.9-7.9,3.2c-1.1,6-7.9,5.1-10.5,6.5
				c0.3-3.6,2.2-6,5.1-6.8c-4.6,0-5.7,2.2-6,4.6c-0.3,1.4,0,1.4-0.3,2.9c-0.3,1.1-0.3,1.1-0.3,1.4s0,0.3,0.3,0.3
				c0-0.3,1.1-1.1,1.7-1.4c1.1-0.3,1.7-0.3,3.6-1.1c1.4-0.3,2.2-0.3,3.2-1.1c1.1,0,2.9,1.1,4.3,2.9c3.2,2.9,1.7,4.6-0.3,5.1
				c-1.7,0-4.3-1.7-6-3.2c-0.3,1.1-2.9,4.3-3.2,4.6c-0.3,1.1-0.3,1.4,0.3,1.7c0.3,0.3,1.4,1.4,1.7,1.7c0,0-1.7,0-3.2,0l0.3,6.5
				c4.3,0.3,11.4-0.3,13.9-4.6c-1.1-1.4-1.1-2.9-1.1-4.3c0-1.4,0.3-1.7,1.1-2.9c0-1.1,0-2.9-0.3-4.3c-1.4-1.4-3.6-3.2-6.5-4.3
				c1.4-1.1,2.2-1.7,3.2-4.3c3.2-0.3,4.3-1.1,7.4-3.2c1.1-1.4,1.7-1.7,1.4-3.2c0-2.2,0-3.2,0.3-4.6
				C227.2,231.2,227.2,227.9,221.8,226.2z M208.2,268.5c-0.3-0.3-0.3-0.3-0.3-1.1c-0.3-0.3-0.3-1.7-0.3-2.9c0-0.3,0-0.3,0.3-0.3
				c1.4,0,2.9,0.3,4.6-0.3c-2.2-1.4-3.2-2.2-3.6-2.9c-0.3-0.3-0.3-0.3,0-1.1c0-0.3,1.7-3.2,1.7-3.2c2.9,2.2,6,3.2,8.2,1.7
				c0,0-1.7,2.9,0,6C217.6,267.4,212.5,268.8,208.2,268.5z"/>
			<path class="st0" d="M191,209.7c-1.1-0.3-1.1-1.1-1.4-1.4c1.7-4.6-1.4-9-6-9c-1.1,0-1.1,0-0.3,0.3c5.7,1.4,6.8,4.6,5.1,7.9
				c1.1,1.1,1.4,1.4,2.2,2.2C191.4,210.8,192.1,210.8,191,209.7z"/>
			<path class="st0" d="M157.1,235.8c0,0-0.3,0-0.3,0.3l-1.1,2.9v0.3c0,1.1,0.3,1.4,1.4,1.4c0.3,0,1.4-0.3,1.4-1.4V239l-1.4-2.9
				C157.1,235.8,157.1,235.8,157.1,235.8z M157.1,237.3c0,1.1,0.3,2.2,0.3,2.2c0,0.3,0,1.1-0.3,1.1c-0.3,0-1.1-0.3-1.1-1.1
				C156.3,239.8,156.6,238.4,157.1,237.3z"/>
			<path class="st0" d="M163.1,235.8c-0.3,0-0.3,0-0.3,0.3l-1.1,2.9v0.3c0,1.1,0.3,1.4,1.4,1.4c0.3,0,1.1-0.3,1.1-1.4V239l-1.1-2.9
				C163.1,235.8,163.1,235.8,163.1,235.8z M163.1,237.3c0,1.1,0.3,2.2,0.3,2.2c0,0.3-0.3,1.1-0.3,1.1c-0.3,0-1.1-0.3-1.1-1.1
				C162.5,239.8,162.8,238.4,163.1,237.3z"/>
			<path class="st0" d="M150.9,235.8c0,0-0.3,0-0.3,0.3l-1.1,2.9v0.3c0,1.1,0.3,1.4,1.4,1.4c1.1,0,1.4-0.3,1.4-1.4V239l-1.1-2.9
				C151.7,235.8,150.9,235.8,150.9,235.8z M150.9,237.3c0.3,1.1,0.3,2.2,0.3,2.2h0.3c0,0.3-0.3,1.1-1.1,1.1c-0.3,0-0.3-0.3-0.3-1.1
				C150.6,239.8,150.6,238.4,150.9,237.3z"/>
			<path class="st0" d="M152,243.4c-0.3,0-0.3,0.3-0.3,0.3l-1.1,2.9v0.3c0,1.1,0.3,1.4,1.4,1.4c0.3,0,1.1-0.3,1.1-1.4v-0.3l-1.1-2.9
				C152,243.8,152,243.4,152,243.4z M150.9,246.9c0,0,0.3-1.4,1.1-2.2c0,1.1,0.3,2.2,0.3,2.2c0,0.3-0.3,1.1-0.3,1.1
				C151.7,248,150.9,247.7,150.9,246.9z"/>
			<path class="st0" d="M183.2,243.4c-0.3,0-0.3,0.3-0.3,0.3l-1.1,2.9v0.3c0,1.1,0.3,1.4,1.4,1.4c0.3,0,1.4-0.3,1.4-1.4l-0.3-0.3
				l-1.1-2.9L183.2,243.4L183.2,243.4z M182.1,246.9c0,0,0.3-1.4,1.1-2.2c0,1.1,0.3,2.2,0.3,2.2c0,0.3-0.3,1.1-0.3,1.1
				C182.7,248,182.1,247.7,182.1,246.9z"/>
			<path class="st0" d="M154.9,250.3c-0.3,0-0.3,0.3-0.3,0.3l-1.1,2.9v0.3c0,1.1,0.3,1.4,1.4,1.4c0.3,0,1.4-0.3,1.4-1.4l-0.3-0.3
				l-1.1-2.5L154.9,250.3L154.9,250.3z M153.7,254.2c0,0,0.3-1.4,1.1-2.2c0,1.1,0.3,2.2,0.3,2.2c0,0.3,0,1.1-0.3,1.1
				C154.5,254.8,153.7,254.5,153.7,254.2z"/>
			<path class="st0" d="M180.3,250.3c-0.3,0-0.3,0.3-0.3,0.3l-1.1,2.9v0.3c0,1.1,0.3,1.4,1.4,1.4c0.3,0,1.4-0.3,1.4-1.4l-0.3-0.3
				l-1.1-2.9L180.3,250.3L180.3,250.3z M179.6,254.2c0,0,0.3-1.4,1.1-2.2c0,1.1,0.3,2.2,0.3,2.2c0,0.3,0,1.1-0.3,1.1
				C179.9,254.8,179.6,254.5,179.6,254.2z"/>
			<path class="st0" d="M167.4,259.4l-1.1,3.2l-0.3,0.3c0,0.3,1.1,1.4,1.4,1.4c1.1,0,1.4-1.1,1.4-1.4v-0.3l-1.1-3.2
				C167.7,259.4,167.7,259.4,167.4,259.4z M167,263.4v-0.3c0,0,0.3-1.1,0.3-1.7c0.3,1.1,1.1,1.7,1.1,1.7v0.3c0,0.3-0.3,0.3-1.1,0.3
				C167,263.9,167,263.9,167,263.4z"/>
			<path class="st0" d="M162.5,257.7c0,0,0,0-0.3,0l-1.1,3.2v0.3c0,0.3,1.1,1.1,1.4,1.1c1.1,0,1.4-0.3,1.4-1.1v-0.3l-1.1-3.2H162.5z
				 M162.5,259.1c0.3,1.1,1.1,1.7,1.1,1.7v0.3c0,0-0.3,0.3-1.1,0.3c-0.3,0-0.3-0.3-0.3-0.3v-0.3
				C161.7,260.9,162.5,260.2,162.5,259.1z"/>
			<path class="st0" d="M172.4,257.7l-1.1,3.2l-0.3,0.3c0,0.3,1.1,1.1,1.4,1.1c1.1,0,1.4-0.3,1.4-1.1v-0.3l-1.1-3.2
				C173.1,257.7,173.1,257.7,172.4,257.7z M172.4,259.1c0.3,1.1,1.1,1.7,1.1,1.7v0.3c0,0-0.3,0.3-1.1,0.3c-0.3,0-0.3-0.3-0.3-0.3
				v-0.3C172.1,260.9,172.4,260.2,172.4,259.1z"/>
			<path class="st0" d="M178.1,235.8c0,0,0,0,0,0.3L177,239v0.3c0,1.1,0.3,1.4,1.1,1.4c1.1,0,1.4-0.3,1.4-1.4V239l-1.1-2.9
				C178.4,235.8,178.4,235.8,178.1,235.8z M177.8,239.8c0,0,0.3-1.4,0.3-2.2c0.3,1.1,1.1,2.2,1.1,2.2c0,0.3-0.3,1.1-1.1,1.1
				C178.1,240.6,177.8,240.1,177.8,239.8z"/>
			<path class="st0" d="M184.1,235.8c0,0,0,0,0,0.3L183,239l-0.3,0.3c0,1.1,1.1,1.4,1.4,1.4c1.1,0,1.4-0.3,1.4-1.4V239l-1.1-2.9
				C184.6,235.8,184.6,235.8,184.1,235.8z M184.1,237.3c0.3,1.1,1.1,2.2,1.1,2.2c0,0.3-0.3,1.1-1.1,1.1c-0.3,0-0.3-0.3-0.3-1.1
				C183.5,239.8,184.1,238.4,184.1,237.3z"/>
			<path class="st0" d="M172.4,235.8c-0.3,0-0.3,0-0.3,0.3L171,239v0.3c0,1.1,0.3,1.4,1.4,1.4c0.3,0,1.4-0.3,1.4-1.4l-0.3-0.3
				l-1.1-2.9C172.4,235.8,172.4,235.8,172.4,235.8z M172.4,237.3c0,1.1,0.3,2.2,0.3,2.2c0,0.3,0,1.1-0.3,1.1c-0.3,0-1.1-0.3-1.1-1.1
				C171.6,239.8,172.1,238.4,172.4,237.3z"/>
			<path class="st0" d="M167,236.9c0,0.3,0,0.3,0,0.3c-0.3,1.1-1.4,1.7-1.4,3.2c0,0.3,0,1.1,0.3,1.4c-1.7-0.3-2.2,0.3-3.2,1.1
				c0,0,0,0-0.3,0c0,0.3,0,0.3,0,0.3v0.3l0.3,0.3c1.1,0.3,1.7,1.4,3.2,1.1c0,1.1-1.1,1.4-1.4,1.7c-0.3,0-1.4,0-1.7-0.3
				c0-0.3,0-0.3,0-0.3c0-1.7-0.3-2.2-1.4-2.9l-0.3-1.1c-0.3,0-0.3,0-0.3,0c-0.3,0-0.3,0-0.3,0.3v1.1c-0.3,0.3-0.3,1.1-0.3,1.7
				c0,0.3,0,1.1,0.3,1.4c-0.3,1.1-1.1,1.1-1.4,1.1c-0.3-0.3-1.1-1.1-1.1-1.4c0-0.3,0.3-1.1,1.4-1.1h0.3V245
				c-0.3-1.1-1.1-1.4-1.4-1.7c-0.3,0-1.4-0.3-1.7,0c-1.1-1.4-3.2-2.2-3.2-2.2s0,0-0.3,0v0.3l5.7,13.6c3.2,1.7,9.3,1.7,9.3,1.7
				c0.3,0,0.3,0,0.3-0.3c0,0,0-0.3-0.3-0.3c0,0-6,0.3-9-1.4c0,0-4.3-10.8-4.6-12.5c0.3,0.3,1.4,1.4,1.7,1.7c0,0,0,0.3,0.3,0
				c0,0,1.1,0,1.4,0.3c0.3,0,1.1,0.3,1.1,1.1c-1.1,0-1.4,0.3-1.4,1.4c-0.3,0-0.3,0-0.3,0.3s0.3,1.4,1.4,1.4c0.3,0.3,1.4,0.3,2.9-1.1
				c0,0,0,0,0-0.3c-0.3-0.3-0.3-1.1-0.3-1.4s0-1.4,0-1.7c0,0,0,0,0.3,0c0.3,0.3,1.4,1.1,1.4,2.2c0,0,0,0.3-0.3,0.3
				c0,0.3,0,0.3,0.3,0.3c0.3,1.1,1.4,1.1,2.2,1.1c1.4-0.3,2.2-1.7,2.2-3.2v-0.3c-0.3,0-0.3,0-0.3,0c-1.4,0.3-2.2,0-3.2-1.1
				c0,0,0,0,0.3,0c0.3-0.3,1.1-1.4,2.9-0.3h0.3c0-0.3,0-0.3,0-0.3c-1.4-2.2,0-3.6,0.3-4.6c0,0,0.3,0,0.3-0.3v-0.3
				C167.4,236.9,167.4,236.9,167,236.9z"/>
			<path class="st0" d="M159.9,254.5c1.7,1.1,7.4,1.1,7.4,1.1v-1.1c0,0-5.7,0-6.8-1.1L159.9,254.5z"/>
			<path class="st0" d="M157.1,251.7l0.3,1.1c3.2-1.7,7.4-1.7,9.7-1.7v-1.1C164.8,249.8,161,249.8,157.1,251.7z"/>
			<path class="st0" d="M158,254.5l0.3,0.3c2.9-1.4,9-1.4,9-1.4v-1.1C167.4,252.6,161,252.6,158,254.5z"/>
			<path class="st0" d="M167.4,247.7c-1.4,1.4-3.6,1.7-5.1,1.1c-0.3-0.3-0.3-0.3-0.3,0c-1.4,1.4-2.2,1.7-4.3,1.4c0-0.3-0.3,0-0.3,0
				s0,0.3-0.3,0.3s-0.3,0.3-0.3,0.3c0.3,0.3,0.3,0.3,1.1,0.3c0-0.3,0.3-0.3,0.3-1.1c1.7,0.3,3.2,0,4.6-1.4c1.7,1.1,4.3,1.1,5.7-1.1
				v-0.3C167.4,247.7,167.4,247.7,167.4,247.7z"/>
			<path class="st0" d="M167,237.3c0.3,0.3,0.3,0.3,0.3,0.3c1.1,1.1,1.7,2.2,0.3,4.6c0,0,0,0,0,0.3c0.3,0,0.3,0,0.3,0
				c1.7-1.1,2.9,0,3.2,0.3c-1.1,1.1-1.7,1.4-2.9,1.1c-0.3,0-0.3,0-0.3,0c-0.3,0-0.3,0.3-0.3,0.3c0,1.4,1.1,2.9,2.2,3.2
				c1.1,0,1.7,0,2.9-1.1c0,0,0,0,0-0.3v-0.3c0-1.4,0.3-1.7,1.4-2.2c0,0.3,0.3,1.4,0.3,1.7c0,0.3-0.3,1.1-1.1,1.4c0,0.3,0,0.3,0,0.3
				c1.4,1.4,2.2,1.4,2.9,1.1c1.1,0,1.4-1.1,1.4-1.7c0-1.1-1.1-1.4-1.7-1.4c0.3-0.3,0.3-1.1,1.1-1.1c1.1-0.3,1.4-0.3,1.7-0.3
				c0,0.3,0.3,0,0.3,0c0-0.3,1.1-1.4,1.7-1.7c-1.1,1.7-5.1,12.5-5.1,12.5c-2.9,1.7-9,1.4-9,1.4v1.1c0.3,0,6.5,0,9.3-1.7l5.7-13.6
				v-0.3h-0.3c0,0-2.2,1.1-3.2,2.2c-0.3-0.3-1.1,0-1.7,0c-0.3,0.3-1.1,1.1-1.4,1.7c0,0,0,0.3,0.3,0.3c1.1,0,1.4,0.3,1.4,1.1
				c0,0.3,0,1.1-0.3,1.4c-0.3,0-1.4,0-1.7-1.1c0.3-0.3,0.3-1.1,0.3-1.4c0-1.1,0-1.4,0-1.7l-0.3-1.1c0-0.3,0-0.3,0-0.3
				c-0.3,0-0.3,0-0.3,0l-1.1,1.1c-0.3,0.3-1.4,1.1-1.4,2.9c0,0,0,0,0,0.3c-0.3,0.3-1.1,0.3-1.4,0.3c-1.1-0.3-1.4-1.1-1.7-1.7
				c1.4,0.3,2.9-0.3,3.2-1.1l0.3-0.3v-0.3c0,0,0,0,0-0.3H172c-0.3-0.3-1.4-1.4-2.9-1.1c0-0.3,0-1.1,0-1.4c0-1.4-0.3-2.2-1.1-3.2
				c-0.3,0-0.3,0-0.3-0.3L167,237.3z"/>
			<path class="st0" d="M167.4,254.5v1.1c0.3,0,6,0,7.4-1.1v-1.1C173.1,254.5,167.4,254.5,167.4,254.5z"/>
			<path class="st0" d="M167.4,249.8v1.1c1.7,0,6.5,0,10.5,1.7v-1.1C173.9,249.8,169.3,249.8,167.4,249.8z"/>
			<path class="st0" d="M167.4,252.6v1.1c0,0,6.5,0,9,1.4l0.3-0.3C173.9,252.6,167.7,252.6,167.4,252.6z"/>
			<path class="st0" d="M167.4,248c1.4,1.7,3.6,1.7,5.7,1.1c1.1,1.4,2.2,1.7,4.3,1.4c0.3,0.3,0.3,0.3,1.1,1.1v-1.1l-0.3-0.3
				c0,0,0-0.3-0.3,0c-1.4,0.3-2.9,0-3.6-1.4c-0.3-0.3-0.3-0.3-0.3,0c-1.7,1.1-4.3,0.3-5.1-1.1L167.4,248z"/>
			<path class="st0" d="M134.7,263.9c0.3-0.3,1.1,0,0.3,0.3c0,0-1.1,2.2-1.1,2.9c0,0,0,0,0,0.3c0.3,0,0.3,0,1.1,0.3
				c0.3,0,0.3-0.3,0.3-0.3c-0.3-1.1,0.3-2.2,1.1-3.2c0.3-0.3,0-1.1-0.3-1.1c-0.3-0.3-0.3-0.3-1.7,0
				C134.4,263.9,134.4,263.9,134.7,263.9z"/>
			<path class="st0" d="M134.4,265.6l0.3-0.3c0-0.3-0.3-0.3-0.3-0.3c-0.3,0-0.3,0-0.3,0.3C133.8,265.3,133.8,265.6,134.4,265.6z"/>
			<path class="st0" d="M142,267.4c0,0,0.3,0,0.3-0.3l-0.3-0.3c-0.3,0-0.3,0.3-0.3,0.3C141.2,267.4,141.2,267.4,142,267.4z"/>
			<path class="st0" d="M154.5,270.2c0,0,0.3-0.3,0.3-1.1l-0.3-0.3c-0.3,0-1.1,0.3-1.1,0.3C153.4,269.9,153.7,270.2,154.5,270.2z"/>
			<path class="st0" d="M175,271c0.3,0,0.3,0,0.3-0.3c0-0.3,0-0.3-0.3-0.3c-0.3,0-0.3,0-0.3,0.3C174.2,271,174.2,271,175,271z"/>
			<path class="st0" d="M201.4,265.3c0.3,0,0.3,0,0.3-0.3c0,0,0-0.3-0.3-0.3l-0.3,0.3C200.8,265.3,201.4,265.3,201.4,265.3z"/>
			<path class="st0" d="M139.8,265.3c0,0-0.3,0-0.3-0.3c0.3,0,0.3,0,0.3-0.3h0.8c0,0,0.3,0.3,1.1,0.3c0,0,0,0,0,0.3
				c-0.3,0-0.3,0.3-0.3,0.3l-1.1,2.2c0,0.3,0.3,0.3,0.3,0.3s0.3,0,0,0.3c-0.3,0-1.1,0-1.1,0c0,0.3-1.1,0-1.1,0
				c0-0.3-0.3-2.9-0.3-2.9c0,0.3-0.3,1.1-0.3,1.4c0,0.3,0.3,0.3,0.3,0.3c0,0.3,0,0.3-0.3,0.3c0,0,0,0-0.3,0c0,0-0.3,0-0.3-0.3
				c-0.3,0-0.3,0,0,0c0-0.3,1.1-2.9,1.1-3.2c0-0.3,0-0.3,0-0.3c-0.3,0-0.3,0-0.3,0c0.3-0.3,0.3-0.3,0.3-0.3c0.3,0,1.1,0,1.4,0.3
				c0,0,0,0,0,0.3c0.3,0,0.3,1.1,0.3,1.4c0,0,0,0.3,0,0C139.8,266.2,139.8,265.3,139.8,265.3z"/>
			<path class="st0" d="M142.7,265.6c-0.3,0-0.3,0-0.3,0c0.3,0,0.3-0.3,1.1-0.3c1.1,0,1.1,0,1.1,0.3c0.3,0,0.3,0,0.3,0.3l-0.8,1.1
				c0,0.3,0.3,0.3,1.1,0.3c0.3-0.3,0.3-1.1,0.3-1.1c0-0.3,0-0.3,0-0.3c-0.3,0-0.3-0.3,0-0.3c0,0,1.1,0,1.4,0.3c0,0,0.3,0,0,0.3
				c-0.3,0.3-0.3,1.4-0.3,1.4c-0.3,0.3-0.3,1.1-0.3,1.4c-0.3,0.3,0,0.3,0,0.3c0.3,0,1.1,0,0.3,0.3c0,0-0.3,0-0.3,0.3
				c-0.3,0-0.3,0-1.1,0c0-0.3-0.3-0.3-0.3-1.1c0-0.8,0-0.3,0-1.1c0.3-0.3-0.3-1.1-1.1-0.3c0,1.1,0,0.3,0,1.1c0.3,0,0.3,0.3,0,0.3
				c-0.3,0.3-1.7,0.3-1.7-0.3c-0.3,0,0,0,0,0s0.3,0,0.3-0.3l1.1-2.9C143,265.6,142.7,265.6,142.7,265.6z"/>
			<path class="st0" d="M150.3,267c0-1.1-1.4-1.1-1.7-0.3c-1.1,0.3-1.4,1.1-1.4,1.1c-0.3,0.3-0.3,1.1-0.3,1.4c0,0.3,0.3,1.1,0.3,1.4
				c0,0.3,0.3,0.3,0.3,0.3c0.3,0.3,0.3,0.3,0.3,0c0.3,0,1.1-0.3,1.7-1.1C150.3,268.8,150.3,268.1,150.3,267z M149.2,268.1
				c0,0.3,0,0.3,0,0.3c-0.3,0-0.3,0.3-0.3,0.3c0,0.3,0,1.1-0.3,1.1c-0.8-0.3-0.8-1.1-0.8-1.4v-0.3c0,0,0-1.1,0.3-1.1
				C148.8,267,149.2,267.4,149.2,268.1z"/>
			<path class="st0" d="M150.3,268.8c0.3-0.3,0.3-1.1,1.4-1.7c0.3,0,1.4,0,1.7,0v0.3l0.3,0.3c0,0.3-1.1,1.1-1.4,0.3
				c0,0,0-0.3-0.3-0.3c0,0-0.3,0.3-0.3,1.1c0,0,0,1.1,0.3,1.4c0,0,0,0.3,0.3,0c0.3,0,0.3,0,0.3,0.3c0,0-1.1,0.3-1.1,1.1
				c-0.3,0-1.1,0-1.4-0.3c0-0.3-0.3-1.1-0.3-1.1C150.3,269.9,150.3,269.6,150.3,268.8z"/>
			<path class="st0" d="M155.6,269.9c-0.3-0.3-0.3-1.1-0.3-1.1c0-0.3,0.3-1.4,1.1-1.4c0.3,0,0.3,0,1.1,0s1.1,0,1.1,0s0.3,0,0.3,0.3
				c0,0-0.3,1.4-1.4,1.1v-0.3c0,0,0-0.3-0.3-0.3c0,0-0.3,0.3,0,0.3c0,1.1,1.4,1.4,1.4,1.7c0,0.3-0.3,0.3-0.3,1.1
				c-0.3,0.3-0.3,0.3-1.1,1.1h-0.3c-0.3,0-1.1-0.3-1.4-0.3c-0.3-1.1,0-1.4,0.3-1.4c0,0,0.3,0,0.3,0.3c0,0,0,0,0.3,0.3
				c0,0,0.3,0,0.3-0.3C156.6,270.2,156.3,269.9,155.6,269.9z"/>
			<path class="st0" d="M159.4,270.2c0,0.3,0.3,1.1,1.1,1.1l0.3-0.3c0.3,0.3,1.1,0.3,0.3,1.1c-0.3,0.3-1.1,1.1-1.1,1.1
				c-1.4,0-2.2-1.7-2.2-3.2c0-0.3,0.3-1.1,1.4-1.4c0-0.3,1.1-0.3,1.4,0c0.3,0,0.3,0.3,0.3,0.3c0.3,1.1,0,1.1-0.3,1.1
				s-0.3-1.1-1.1-1.1c-0.3,0-0.3,0.3-1.1,1.1C159.1,269.9,159.4,269.9,159.4,270.2z"/>
			<path class="st0" d="M162.5,268.5c-0.3,0.3-0.3,0.3-0.3,0c0.3,0,1.7-0.3,2.2,0c0,0,0,0-0.3,0.3c0,0-1.1,1.7,0,2.2
				c0.3,0.3,1.1,0.3,1.1-0.3c0.3-1.1,0.3-1.4,0.3-1.4c0-0.3-0.3-0.3-1.1-0.3c0,0.3,0,0,0,0s1.1-1.1,1.4-0.3c0.3-0.3,1.1,0,1.1,0
				c-0.3,0.3-0.3,1.1-0.3,1.1v1.7v0.3c0,0.3,0,0,0,0s1.1-0.3,0.3,0.3c-0.3,0-1.1,0.3-1.1,0.3s-0.3,0-1.1,0c0,0-0.3,0,0,0
				c0-0.3,0,0,0-0.3c0.3,0,0-0.3,0,0c-0.3,0-1.1,0-1.4,0.3h-0.3c0-0.3-0.3-1.1-1.1-1.4c0,0,0.3-1.7,1.1-2.2
				C162.8,268.5,162.5,268.5,162.5,268.5z"/>
			<path class="st0" d="M169.3,272.1c0.3,0.3,0,0.3-0.3,0.3c-0.3,0.3-1.4,0-1.7,0c-1.1,0-0.3,0-0.3,0c0.3-0.3,0.3-0.3,0.3-1.1
				c0.3-0.3,0.3-1.4,0.3-1.7c0-0.3-0.3-0.3-1.1-0.3c0,0.3-0.3,0.3,0,0c0-0.3,0-0.3,0.3-1.1c0,0,0.3,0,1.7,0c1.1,0,1.4,0,1.4,0
				c0.3,0,0.3,0,0.3,0c-0.3,0.3-1.1,1.1-1.4,1.1c0,0-0.3,0-0.3,0.3v1.7C168.8,272.1,168.8,272.1,169.3,272.1z"/>
			<path class="st0" d="M171,268.5c0.3-0.3,1.1-0.3,1.4,0c0.3,0,1.1,0.3,1.1,1.1c0.3,0.3,0,1.7,0,1.7c-0.3,0.3-0.3,1.1-1.1,1.4
				c-0.3,0-0.3,0.3-1.1,0c-0.3,0-0.3-0.3-1.1-1.1c-0.3,0-0.3-1.1-0.3-1.4c0-0.3,0-0.3,0-1.1C170.2,269.6,171,268.8,171,268.5z
				 M171,269.9v0.3c0.3,0.3,1.1,1.1,1.1,1.4h0.3c0-0.3,0.3-0.3,0.3-1.1c-0.3,0-1.1-1.1-1.1-1.4S171,269.6,171,269.9z"/>
			<path class="st0" d="M175.3,268.8c0,0-0.3,0.3-0.3,0c0.3-0.3,1.1-1.1,1.1-1.1c0-0.3,0-0.3,0.3-0.3c1.1,0,1.4,0,1.7,0
				c0.3-0.3,1.4,0.3,0.3,1.1c-0.3,0-0.3,0-1.1,0c-0.3,0-0.3,1.1,0,1.1h0.3c0.3-0.3,1.4,0,0.3,1.1c-0.3,0.3-0.3,0-1.1,0.3
				c-0.3,0-0.3,0-0.3,0.3c0,0.3,0,0.3,0,0.3s0,0,0,0.3c0.3,0,0,0.3-0.3,0.3c-0.3,0-1.1,0-1.4,0c0,0,0-0.3,0.3-0.3
				c0,0,0.3-0.3,0.3-1.1C175.6,270.7,175.6,269.1,175.3,268.8C175.3,268.8,175.6,268.5,175.3,268.8z"/>
			<path class="st0" d="M178.9,268.8c0,0-0.3,0,0-0.3c0,0,0.3-1.1,1.1-1.1c0.3-0.3,1.1-0.3,1.1,0.3c-0.3,0.3-0.3,1.1-0.3,1.1
				c0,0.3,0,1.7,0,2.2c0.3,0.3,0.3,0.3,0.3,0.3s0,0.3-0.3,0.3s-1.4,0-1.4,0c-0.3,0,0-0.3,0-0.3c0.3,0,0.3,0,0.3,0
				c-0.3-0.3-0.3-1.1-0.3-1.4C178.9,269.6,178.9,268.8,178.9,268.8z"/>
			<path class="st0" d="M181.3,268.5c0-0.3,0-0.3-0.3-0.3c0,0.3,0,0,0,0c0-0.3,0-1.1,1.4-1.1c1.1-0.3,1.1,0,1.4,0
				c0.3,0,1.7,1.4,0.3,3.2c-0.3,1.1-1.1,1.4-1.7,1.4h-1.1c-0.3,0-0.3,0,0,0c0-0.3,0-0.3,0-1.1C181.3,270.5,181.3,268.5,181.3,268.5z
				 M182.7,271C182.1,271.3,182.7,271,182.7,271c1.1,0,1.1-1.4,1.1-1.4c0-0.3-0.3-1.1-0.3-1.1c-0.3-0.3-0.3-0.3-0.3,0
				C182.7,268.5,182.7,270.2,182.7,271z"/>
			<path class="st0" d="M185.7,268.1c0-0.3,0-0.3-0.3-0.3c0,0.3,0,0.3,0,0.3s-0.3,0-0.3-0.3c0.3-0.3,1.1-1.1,1.1-1.1
				s0.3-0.3,1.1-0.3c0.3,0,0.3,0,1.1,0c0.3,0,1.1,0,1.1,0.3c0,0.3,0,0.3-1.1,0.3l-1.4,0.3v0.3c0,0.3,0,0,0.3,0c0,0,0,0,0.3,0
				c0.3,0,0.3,0.3,0,1.1h-0.3c-0.3,0-0.3,0.3-0.3,0.3v0.3c0.3,0,0.3,0,0.3,0c0.3,0,0.3,0,1.1,0c0-0.3,0.3,0,0,0c0,0.3,0,1.1,0,1.1
				h-0.3c-0.3,0-0.3,0-1.1,0.3c-0.3,0-1.4,0-1.7,0c-0.3,0-1.1,0,0-0.3c0-0.3,0.3-0.3,0.3-1.1V268h0.2V268.1z"/>
			<path class="st0" d="M189.2,266.7c-0.3,0-0.3,0-0.3,0s-0.3,0,0,0c0-0.3,0-1.1,0.3-1.1c0,0,0.3,0,1.1,0c0,0,0.3,0,0.3,0.3
				c0,0.3,0.3,0.3,0.3,1.1c0,0.3,0,0,0.3,0c0-0.3,0-1.1,0-1.1c0.3-0.3,1.1-1.1,1.1-1.1c0.3,0,1.1-0.3,1.1,0.3c-0.3,0.3,0,2.2,0,2.9
				h0.3c0-0.3,0-0.3,0,0v1.1c-0.3,0.3-1.4,0.3-1.4,0c-0.3-0.3-0.3-1.1-0.3-1.4c0-0.3,0-1.1,0-1.4c0.3,0,0.3-0.3,0,0
				c0,0.3-0.3,1.4,0,2.2c0,0,0,0,0,0.3c0,0,0,0,0,0.3c-0.3,0-0.3,0.3-0.3,0c-0.3,0-1.1-1.1-1.1-1.4c-0.3-0.3-0.3,0-0.3,0
				c0,0.3,0,1.1,0,1.1c0,0.3,0,0,0.3,0c0,0,0,0,0,0.3c0,0-0.3,1.1-1.1,1.1c-0.3,0-0.3,0-1.1,0c0-0.3,0-0.3,0-1.1c0,0,0,0,0.3,0
				c0-0.3,0-0.3,0-1.1c0-0.3,0-1.4,0-1.7C189.5,267,189.2,266.7,189.2,266.7z"/>
			<path class="st0" d="M194.3,265.6c0-0.3,0-0.3-0.3-0.3c0,0.3,0,0,0,0.3c-0.3,0-0.3,0-0.3-0.3c0.3,0,1.1-0.3,1.4-0.3
				c0.3-0.3,1.1,0,0.3,0.3c0,0.3,0,1.7,0,2.2s0,1.1,1.1,0.3c0.3-0.3,0.3-1.1,0.3-1.1c0-0.3,0-1.1,0-1.7c0-0.3,0-0.3-0.3,0
				c-0.3,0-0.3,0,0-0.3c0-0.3,0-0.3,0.3-1.1c0.3,0,1.4,0,1.1,0.3v0.3c0,0,0,1.7,0.3,2.2v1.1c0,0.3,0,0.3,0,0.3s0.3,0,0,0.3
				c0,0-0.3,0-1.1,0h-0.3v-0.3c0,0.3,0,0.3,0,0.3c-0.3,0-1.1,0.3-1.1,1.1c-0.3,0-1.4,0-1.4-1.1C194,267.4,194.3,265.6,194.3,265.6z"
				/>
			<path class="st0" d="M198.6,265.6c-0.3,0-0.3-1.1-0.3-1.1c0.3-0.3,0.3-1.4,1.1-1.4c0.3-0.3,1.1-0.3,1.1,0c1.1,0,1.1,0.3,1.1,1.1
				c0,0-0.3,0-0.3,0.3c0,0,0,0-0.3,0l-0.3-0.3c0,0-0.3,0.3,0,0.3c0.3,0,1.1,0.3,1.4,0.3c0.3,0.3,0.3,1.1,0.3,1.4
				c-0.3,0-1.1,1.1-1.1,1.4c0,0.3-1.1,0.3-1.1,0.3c-0.3,0-1.1-0.3-1.1-0.3c-0.3-0.3,0-0.3,0-1.1c0,0,0-0.3,0.3-0.3
				c0.3,0.3,0.3,0.3,0.3,0.3c0.3,0,0.3,0,0.3,0s0,0,0.3-0.3H200c0,0-0.3,0-1.1-0.3L198.6,265.6z"/>
			<path class="st0" d="M118,252.6c1.7-1.7,3.6-2.2,4.3-2.2c2.9,1.7,6,2.2,9.3,2.9c0.3-3.2-1.1-7.9-5.1-7.9c1.7,1.4,3.6,3.2,3.6,6.5
				c-3.2-0.3-9.3-1.4-10.8-7.4c-4.3,0-6.8-1.7-7.9-3.2c-1.1-0.3-0.3-0.3-0.3-1.7c0.3-1.1,0.3-3.6-0.3-5.7c-1.1-4.3,1.4-7.4,8.2-7.4
				c6,0,8.2,1.7,10.5,1.7c2.2,0.3,2.2,0,2.2,0c-1.4,0-1.7,0-4.3-1.1c-2.2-0.3-6.8-3.2-12.8-1.4c-5.7,1.7-5.1,6-4.6,7.4
				c1.1,1.7,1.1,3.6,0.3,6c-0.3,1.1-1.1,1.4,0,2.9c2.9,2.9,6,3.2,8.2,3.2c0.3,1.7,1.4,3.2,2.9,4.3c-2.9,1.1-5.7,2.9-6.5,4.6
				c-1.1,1.4-0.3,2.2-0.3,2.9c0.3,1.1,1.1,2.2,1.1,3.2c0,1.4-0.3,3.2-1.4,4.6c2.2,4.3,11.1,6.5,14.3,5.1v-6
				c-1.4-0.3-2.9-0.3-2.9-0.3c1.1-1.1,1.4-1.4,1.7-2.2c1.1-0.3,0.3-1.4,0.3-1.7c-0.3-0.3-2.2-4.6-2.9-5.1c-1.4,1.7-3.6,4.6-6.8,3.6
				C115.9,257.1,114.8,254.5,118,252.6z M125.1,256.3c0,0,1.4,2.9,1.4,3.2c0.3,1.1,0.3,0.3,0,1.1c-0.3,0.3-1.4,2.2-4.3,3.2
				c1.1,1.1,3.2,1.4,4.6,1.4c0.3,0.3,0,0,0.3,1.1c0,0.3,0,1.7,0,2.2c0,0.3,0,0.3-0.3,0.3c-4.3,0.3-9.7-1.7-11.4-4.3h0.3v-0.3
				c0-0.3,0-0.3,0.3-1.1h0.3l-0.3-1.1c0-0.3,0.3-0.3,0.3-1.1v-0.3v-0.3c0-1.1-0.3-1.7-0.3-1.7C119.7,260.2,123.7,258.8,125.1,256.3z
				"/>
			<path class="st0" d="M145.5,242c0.3,0,0-0.3,0-1.1c-0.3,0-1.1-0.3-1.1,0c0,0,0,0.3,0,1.1C145.2,242,145.5,242.3,145.5,242z"/>
			<path class="st0" d="M144.4,243.4c0.3-0.3,0-1.1,0-1.1c-0.3-0.3-0.3-0.3-1.1-0.3c0,0.3,0,0.3,0.3,1.1
				C144.1,243.4,144.4,243.4,144.4,243.4z"/>
			<path class="st0" d="M143.8,244.4c0-0.3,0-0.3,0-1.1c-0.3,0-0.3,0-1.1,0c0,0,0,0.3,0.3,0.3C143,244.4,143.8,244.4,143.8,244.4z"
				/>
			<path class="st0" d="M143,241.5c0-0.3,0-0.3,0-0.3c0-0.3-0.3-0.3-0.3-0.3v0.3C142.7,241.5,143,241.5,143,241.5z"/>
			<path class="st0" d="M144.1,240.6c0-0.3,0-0.3,0-1.1c-0.3,0-0.3,0-0.3,0c-0.3,0-0.3,0.3,0,0.3
				C143.8,240.6,144.1,240.6,144.1,240.6z"/>
			<path class="st0" d="M142.7,239.2c0.3,0,0.3,0,0-0.3C142.3,238.7,142.3,239.2,142.7,239.2z"/>
			<path class="st0" d="M142.3,240.1c0,0,0-0.3-0.3-0.3c0,0,0,0,0,0.3C142,240.1,142,240.1,142.3,240.1z"/>
			<path class="st0" d="M145.2,239.2v-0.3h-0.3c0,0,0,0,0,0.3C145.2,239.2,145.2,239.2,145.2,239.2z"/>
			<path class="st0" d="M135.2,226.5c2.2,0,4.6-0.3,6.5-1.1c-1.4,1.4-4.6,1.7-6,2.2L135.2,226.5z"/>
			<path class="st0" d="M136.6,230.9c2.2-0.3,3.6-1.7,5.1-2.2c-1.1,1.7-3.2,2.9-4.6,3.2L136.6,230.9z"/>
			<path class="st0" d="M128.7,179.6v1.1h1.1v-1.1H128.7z"/>
			<path class="st0" d="M130.1,179.9v0.8l1.1,0.3v-1.1H130.1z"/>
			<path class="st0" d="M131.9,179.9v1.1h1.1v-0.3L131.9,179.9z"/>
			<path class="st0" d="M133.3,181.1v0.3h0.3L133.3,181.1z"/>
			<path class="st0" d="M129,183.9h1.1v0.8l-0.3,0.8L129,183.9z"/>
			<path class="st0" d="M131.9,183.3v1.1l1.4-0.3v-0.8H131.9z"/>
			<path class="st0" d="M133.8,183.3v0.8h1.4v-0.8H133.8z"/>
			<path class="st0" d="M135.9,183.3v0.8h0.3L135.9,183.3z"/>
			<path class="st0" d="M130.5,184.7v-1.4h1.1v1.1L130.5,184.7z"/>
			<path class="st0" d="M127.3,221.1c0-0.3,0-0.3,0-1.1c0-0.3-0.3-0.3-0.3-0.3c-0.3,0-0.3,0.3,0,1.1L127.3,221.1z"/>
			<path class="st0" d="M128.4,220.2c0,0,0.3-0.3,0-0.3c0-0.3-0.3-0.3-0.3-0.3s-0.3,0.3,0,0.3C127.9,220.2,128.4,220.2,128.4,220.2z
				"/>
			<path class="st0" d="M128.4,222.7c0,0,0-0.3,0-1.1c0-0.3-0.3-0.3-0.3-0.3c-0.3,0-0.3,0.3-0.3,1.1
				C127.9,222.7,127.9,222.7,128.4,222.7z"/>
			<path class="st0" d="M128.7,221.1c0-0.3,0-0.3,0-0.3c-0.3,0-0.3,0.3-0.3,0.3C128.7,221.1,128.7,221.1,128.7,221.1z"/>
			<path class="st0" d="M129.8,220.5c0.3,0,0.3,0,0-0.3C129.8,220.2,129.8,220.2,129.8,220.5z"/>
			<path class="st0" d="M128.4,217.9v-0.8c0-0.3-0.3-0.3-0.3-0.3v0.3C127.9,217.9,128.4,217.9,128.4,217.9z"/>
			<path class="st0" d="M129,219.1c0,0,0,0,0-0.3c0,0-0.3-0.3-0.3,0c0,0,0,0,0,0.3H129z"/>
			<path class="st0" d="M126.5,219.1c0,0,0-0.3,0-1.1l-0.3-0.3c-0.3,0.3-0.3,0.3,0,1.1C125.9,219.1,126.5,219.1,126.5,219.1z"/>
			<path class="st0" d="M127.3,218.7c0.3-0.3,0.3-0.3,0-1.1c0-0.3-0.3-0.3-0.3-0.3s0,0.3,0,1.1L127.3,218.7z"/>
			<path class="st0" d="M138.4,190.1c0-0.3,0-1.1,0-1.1c-0.3-0.3-0.8-0.3-0.8-0.3c-0.3,0-0.3,0.3,0,1.1
				C138.1,190.1,138.4,190.1,138.4,190.1z"/>
			<path class="st0" d="M139.8,191.5c0,0,0-0.3-0.3-1.1c0-0.3-0.3-0.3-0.3,0c-0.3,0-0.3,0.3,0,0.3
				C139.5,191.5,139.5,191.5,139.8,191.5z"/>
			<path class="st0" d="M137.8,190.7c0-0.3,0-0.3,0-1.1c-0.3-0.3-1.1-0.3-1.1-0.3c-0.3,0.3,0,0.3,0,1.1
				C137.3,190.7,137.8,190.7,137.8,190.7z"/>
			<path class="st0" d="M139.2,192.1c0,0,0-0.3,0-1.1c-0.3,0-1.1-0.3-1.1,0v0.3C138.4,192.1,139.2,192.1,139.2,192.1z"/>
			<path class="st0" d="M136.6,191.8c0,0,0-0.3,0-1.1c-0.3,0-0.3,0-1.1,0c0,0,0,0.3,0.3,0.3C136.2,191.8,136.6,191.8,136.6,191.8z"
				/>
			<path class="st0" d="M138.1,193.2c0,0,0-0.3-0.3-0.3c0-0.3,0-0.3-0.3-0.3c0,0,0,0.3,0.3,0.3C137.8,193.2,137.8,193.2,138.1,193.2
				z"/>
			<path class="st0" d="M136.6,194c0.3,0,0-0.3,0-0.3c0-0.3-0.3-0.3-0.3-0.3c0,0.3,0,0.3,0,0.3C136.6,194,136.6,194,136.6,194z"/>
			<path class="st0" d="M135.9,192.6v-0.3h-0.3c0,0,0,0,0,0.3H135.9z"/>
			<path class="st0" d="M139.8,192.6c0,0,0,0-0.3-0.3c-0.3,0,0,0.3,0,0.3S139.5,192.6,139.8,192.6z"/>
			<path class="st0" d="M145.5,227.6c0,0,0-0.3,0-1.1c-0.3,0-0.3,0-1.1,0v0.3C145.2,227.6,145.2,227.6,145.5,227.6z"/>
			<path class="st0" d="M145.2,225.1c0.3,0,0.3-0.3,0-0.3c0-0.3-0.3-0.3-0.3-0.3v0.3C145.2,225.1,145.2,225.1,145.2,225.1z"/>
			<path class="st0" d="M144.1,226.2c0.3-0.3,0.3-0.3,0-0.3c0-0.3,0-0.3-0.3-0.3v0.3C144.1,225.9,144.1,226.2,144.1,226.2z"/>
			<path class="st0" d="M144.4,224.4c0-0.3,0-0.3,0-0.3c-0.3-0.8-0.3-0.8-0.3-0.8c-0.3,0-0.3,0.3,0,0.3
				C144.1,224.4,144.1,224.4,144.4,224.4z"/>
			<path class="st0" d="M144.4,227.9c0,0,0,0-0.3-0.3c-0.3,0-0.3,0.3,0,0.3C144.1,227.9,144.1,228.4,144.4,227.9z"/>
			<path class="st0" d="M145.2,223.3c0.3,0,0.3-0.3,0-0.3c0-0.3,0-0.3-0.3-0.3c0,0.3,0,0.3,0,0.3
				C145.2,223.3,145.2,223.3,145.2,223.3z"/>
			<path class="st0" d="M143,226.5c0,0,0,0,0-0.3c0,0,0,0-0.3,0C142.7,226.2,142.7,226.5,143,226.5z"/>
			<path class="st0" d="M143,229c0.3,0,0,0,0-0.3C142.7,228.4,142.7,229,143,229z"/>
			<path class="st0" d="M146.6,253.1c0.3-0.3,0.3-1.1,0.3-1.1c-0.3-0.3-0.3-0.3-1.1-0.3c-0.3,0-0.3,0.3,0,1.1L146.6,253.1z"/>
			<path class="st0" d="M145.5,251.2c0.3,0,0.3-0.3,0.3-0.3c0-0.3-0.3-0.3-1.1-0.3c0,0,0,0.3,0,1.1
				C145.2,251.2,145.5,251.7,145.5,251.2z"/>
			<path class="st0" d="M147.7,252.3c0.3,0,0.3-0.3,0-1.1c0,0-0.3-0.3-0.3,0c-0.3,0-0.3,0.3,0,0.3
				C147.4,252.3,147.7,252.3,147.7,252.3z"/>
			<path class="st0" d="M147.4,254.2c0,0,0.3-0.3,0-0.3c0-0.3-0.3-1.1-0.3-0.3c-0.3,0-0.3,0.3-0.3,1.1
				C146.9,254.2,146.9,254.5,147.4,254.2z"/>
			<path class="st0" d="M146,254.8c0.3,0,0.3-0.3,0-1.1c0,0,0-0.3-0.3,0c0,0-0.3,0.3,0,0.3C145.5,254.8,146,254.8,146,254.8z"/>
			<path class="st0" d="M145.2,253.7c0.3,0,0.3,0,0.3-0.3c-0.3-0.3-0.3-0.3-1.1-0.3c0,0.3,0,0.3,0,1.1
				C144.4,253.7,145.2,254.2,145.2,253.7z"/>
			<path class="st0" d="M144.1,252.6c0.3-0.3,0.3-0.3,0.3-1.1c-0.3,0-0.3,0-0.3,0c-0.3,0-0.3,0.3-0.3,0.3
				C144.1,252.3,144.1,252.6,144.1,252.6z"/>
			<path class="st0" d="M143,250.9c0.3,0,0.3,0,0.3-0.3c-0.3,0-0.3,0-0.3,0S142.7,250.9,143,250.9z"/>
			<path class="st0" d="M143.8,254.5c0.3,0,0.3,0,0.3-0.3c-0.3,0-0.3,0-0.3,0S143.8,254.2,143.8,254.5z"/>
			<path class="st0" d="M112.9,232.7c0.3,0,0.3-0.3,0-1.1c0-0.3-0.3-0.3-1.1-0.3c0,0,0,0.3,0,1.1
				C112.6,232.7,112.9,232.7,112.9,232.7z"/>
			<path class="st0" d="M114,231.6c0.3,0,0.3-0.3,0-1.1c0-0.3-0.3-0.3-0.3-0.3c-0.3,0-0.3,0.3,0,1.1
				C113.4,231.6,114,231.6,114,231.6z"/>
			<path class="st0" d="M114.8,233c0.3,0,0.3-0.3,0-1.1c0-0.3-0.3-0.3-1.1-0.3c0,0,0,0.3,0,1.1C114.5,233,114.8,233,114.8,233z"/>
			<path class="st0" d="M114.8,230.9c0,0,0-0.3,0-1.1c0,0-0.3-0.3-0.3,0c-0.3,0-0.3,0.3,0,0.3C114.5,230.9,114.8,230.9,114.8,230.9z
				"/>
			<path class="st0" d="M115.9,232.4v-0.8c0-0.3-0.3-0.3-0.3-0.3c-0.3,0-0.3,0.3,0,1.1C115.4,232.4,115.9,232.7,115.9,232.4z"/>
			<path class="st0" d="M115.9,229.8c0.3,0,0.3-0.3,0-0.3c0-0.3,0-0.3-0.3-0.3c0,0,0,0.3,0,1.1C115.9,229.8,115.9,229.8,115.9,229.8
				z"/>
			<path class="st0" d="M111.9,230.9c0.3,0,0.3-0.3,0.3-0.3c-0.3-0.3-0.3-0.3-1.1-0.3c0,0.3,0,0.3,0,1.1h0.8V230.9z"/>
			<path class="st0" d="M112.9,229.8v-0.3c0-0.3-0.3-0.3-0.3-0.3c0,0.3,0,0.3,0,1.1h0.3V229.8z"/>
			<path class="st0" d="M114,229c0,0,0,0,0-0.3c0,0,0,0-0.3,0c0,0,0,0,0,0.3C113.4,229,114,229.3,114,229z"/>
			<path class="st0" d="M116.5,231.6v-0.3c0-0.3-0.3-0.3-0.3-0.3v0.3C116.2,231.6,116.5,231.6,116.5,231.6z"/>
			<path class="st0" d="M117.3,229.3V229c0-0.3-0.3-0.3-0.3-0.3v0.3C116.5,229.3,117.3,229.3,117.3,229.3z"/>
			<path class="st0" d="M114.8,228.4v-0.3c0-0.3-0.3-0.3-0.3-0.3c0,0.3,0,0.3,0,0.3C114.5,228.4,114.8,228.4,114.8,228.4z"/>
			<path class="st0" d="M116.2,227.6c0-0.3-0.3-0.3-0.3-0.3v0.3H116.2z"/>
			<path class="st0" d="M118,227.6v-0.3c0,0,0,0-0.3,0C118,227.6,118,227.6,118,227.6z"/>
			<path class="st0" d="M117.6,230.9c0.3,0,0.3-0.3,0-0.3c0-0.3,0-0.3,0-0.3c-0.3,0-0.3,0.3,0,0.3
				C117.6,230.9,117.6,230.9,117.6,230.9z"/>
			<path class="st0" d="M116.5,240.9l0.8,0.8v-0.8H116.5z"/>
			<path class="st0" d="M118,241.5l-0.3,0.3l1.1,0.3l0.3-0.3L118,241.5z"/>
			<path class="st0" d="M119.4,242v0.3l1.1,0.8v-0.8L119.4,242z"/>
			<path class="st0" d="M121.1,242.3l-0.3,1.1h1.1l0.3-1.1H121.1z"/>
			<path class="st0" d="M122.7,242.3v1.4h1.1V243L122.7,242.3z"/>
			<path class="st0" d="M117.6,238.7h1.4v0.3h-1.4V238.7z"/>
			<path class="st0" d="M119.4,238.7v0.3h1.4v-0.6L119.4,238.7z"/>
			<path class="st0" d="M121.9,238.4v0.8h1.4l-0.8-1.4L121.9,238.4z"/>
			<path class="st0" d="M123.7,237.6l0.3,1.1h1.1v-1.4L123.7,237.6z"/>
			<path class="st0" d="M137.3,252.3c0.3,0,1.1-0.3,1.1-1.1c0-0.3-0.3-0.3-1.1-0.3c-0.3,0-1.1,0-1.1,0.3
				C136.2,251.7,136.6,252.3,137.3,252.3z"/>
			<path class="st0" d="M127,205.8c-0.3,0-0.3,0.3-1.1,1.1l0.3,0.3l1.4-1.1L127,205.8z"/>
			<path class="st0" d="M125.6,207.2l-0.3,0.8l0.3,0.8l1.1-1.1L125.6,207.2z"/>
			<path class="st0" d="M124.4,208.6l-0.8,1.1h0.3l1.1-0.8L124.4,208.6z"/>
			<path class="st0" d="M123.7,210.5l-0.3,1.4l0.8-1.4H123.7z"/>
			<path class="st0" d="M122.2,205.8l-0.3,1.4l0.8,0.3l0.8-1.4L122.2,205.8z"/>
			<path class="st0" d="M121.9,207.7l-0.8,1.4l0.8,0.3l0.3-1.4L121.9,207.7z"/>
			<path class="st0" d="M121.1,209.4l-0.3,1.4l0.3,0.3v-1.4V209.4z"/>
			<path class="st0" d="M148.4,208.6l0.3,1.1c1.7,0,3.2-1.1,3.6-1.4C150.3,208.6,148.4,208.6,148.4,208.6z"/>
			<path class="st0" d="M150.9,211.1l1.1,1.1l1.1-1.7L150.9,211.1z"/>
			<path class="st0" d="M168.5,211.9l0.8,2.2h0.3l-1.1-2.9V211.9z"/>
			<path class="st0" d="M171.6,216.5l0.3,0.8V217v-0.3h-0.3V216.5z"/>
			<path class="st0" d="M164.2,190.7c-0.3,0-0.3,0-1.1,0.3c-0.3,0-1.1,0.3-1.1,1.1l-1.1-0.3v-0.3c1.1,0,1.1-1.4,0-1.1
				c0-1.1,0-1.4-0.3-1.4c-1.1,0-1.1,0.3-1.1,1.4c-1.1-0.3-1.1,1.1,0,1.1v0.3l-0.3,0.3c0-0.3-0.3-1.1-1.1-1.1
				c-0.3-0.3-0.3-0.3-1.1-0.3c-0.3-0.3-0.3-0.3,0,0.3c0.8,1.1,1.4,2.9,1.4,2.9c0.3,1.1,1.4,1.1,2.2,1.1c0.3,0,1.4,0,2.2-1.1
				c0,0,1.1-1.7,1.1-2.9C164.5,190.4,164.8,190.4,164.2,190.7z M158,192.6v-0.8c0,0.3,0.3,0.3,0.3,0.3L158,192.6z M159.9,190.7
				c0,0,0-0.3,0.3,0c0-0.3,0-1.1,0.3-1.1c0,0,0,0.3,0,1.1c0.3-0.3,1.1,0,1.1,0c-0.3,0.3-0.3,0.3-1.1,0v0.3h-0.3v-0.3
				C160.2,191.5,159.9,191.5,159.9,190.7z M161,194.7c-1.1,0-1.7,0-1.7-0.3c0,0,1.1-0.3,1.7-0.3c0.3,0,1.4,0.3,1.4,0.3
				C162.5,194.7,161.3,194.7,161,194.7z M162.5,193.6c-1.1-0.3-2.2-0.3-3.2,0C159.9,193.2,161.3,193.2,162.5,193.6z M163.1,192.6
				l-0.3-0.3c0,0,0.3,0,0.3-0.3V192.6z"/>
			<path class="st0" d="M157.1,189l-0.8,1.1v0.3l0.8-1.1V189z"/>
			<path class="st0" d="M156.6,191.5l-0.3,0.3h0.3l0.3-0.3H156.6z"/>
			<path class="st0" d="M157.7,190.7l0.8-0.8h-0.3l-0.3,0.3v0.5H157.7z"/>
			<path class="st0" d="M156.3,188.7l-0.8,0.3v0.3l1.1-0.8h-0.3V188.7z"/>
			<path class="st0" d="M159.4,189h-0.3l-0.8,0.3v0.8L159.4,189z"/>
			<path class="st0" d="M160.2,187.9h-0.3l-0.3,0.8v0.3L160.2,187.9z"/>
			<path class="st0" d="M162.5,190.1l0.3-0.8l-1.1,0.8H162.5z"/>
			<path class="st0" d="M163.9,188.7l-1.1,0.3l0.3,0.3L163.9,188.7z"/>
			<path class="st0" d="M163.9,190.4l0.8-1.1h-0.3l-0.3,0.8v0.3H163.9z"/>
			<path class="st0" d="M164.5,187.5h-0.3l-0.3,0.3l0.3,0.8L164.5,187.5z"/>
			<path class="st0" d="M164.8,188.7l-0.3,0.3v0.3l1.1-0.3L164.8,188.7z"/>
			<path class="st0" d="M162.5,187.9h-0.8l-0.3,0.8v0.3L162.5,187.9z"/>
			<path class="st0" d="M156.6,192.6l0.3,0.8l0.8-0.8l-0.8-0.3L156.6,192.6z"/>
			<path class="st0" d="M160.2,195.5l-0.8,0.8h0.3L160.2,195.5z"/>
			<path class="st0" d="M159.1,195.5l0.3-0.3h-0.3V195.5z"/>
			<path class="st0" d="M157.7,194l0.3,0.8V194v-0.3L157.7,194z"/>
			<path class="st0" d="M160.2,196.4v0.3l0.8-0.3v-0.3L160.2,196.4z"/>
			<path class="st0" d="M164.5,190.4h0.3l0.8-0.3h-0.8L164.5,190.4z"/>
			<path class="st0" d="M161.3,195.5v0.8l1.1-0.8l-0.8-0.3L161.3,195.5z"/>
			<path class="st0" d="M163.9,193.2l0.3-0.8L163.9,193.2z"/>
			<path class="st0" d="M158,188.7h-0.3l-0.8,0.3h0.8L158,188.7z"/>
			<path class="st0" d="M162.8,191.5l0.3-0.8v-0.3l-0.8,0.3L162.8,191.5z"/>
			<path class="st0" d="M210,218.7c0-0.3,0.3-1.1,0-1.1c0,0-0.3,0-1.1,0.3c0,0.3-0.3,0.3,0,1.1C209.3,219.1,209.6,219.1,210,218.7z"
				/>
			<path class="st0" d="M224.1,230.9c-0.3,0-0.3,0.3-0.3,0.3s-0.3,0-0.3,0.3c-0.3,0.3-0.3,1.1-0.3,1.1h0.3l-0.3,0.3v-0.3
				c-0.3,0-0.3,0-1.1,0c0,0,0,0-0.3,0c0.3-0.3,0.3-1.1,0-1.1c0,0-0.3,0-1.1,0.3c-2.9-0.3-5.7,0.3-8.2,1.1c-2.2,0.3-5.1,1.1-7.4,1.1
				c-1.4,0-2.2-0.3-4.6-1.4c0,1.4,0.3,2.2,0.3,3.2c0.3,0.3,0.3,2.2,0,4.3c-1.7-1.4-2.9-1.7-4.3-2.9c-1.1-1.1-1.7-2.9-2.2-6
				c0-1.1-1.4-2.2-2.9-3.2l-1.7-1.7v-5.1c1.4,1.1,2.9,1.7,4.3,2.2c2.2,1.1,2.9,1.1,4.6,0.3c2.2,0.3,3.6,1.1,5.7,1.1
				c0,1.1-0.3,1.1-1.1,1.1c-2.2,0-3.2,2.9-0.3,2.9c1.4,0,1.4,0,2.2,0c1.1-0.3,1.4-0.3,0-0.3c-1.1,0-1.7,0-2.2,0
				c-0.3-0.3-0.3-0.3,0-0.3c1.1-0.3,1.4-0.3,1.7-1.1c0.3-0.3,0.3-0.3,1.1-1.1c0,0,0.3-0.3,0.3-1.1c2.9,0,5.7-1.1,7.9-3.2
				c2.2-2.9,4.6-4.6,4.6-7.9c0-2.2-0.3-3.2-1.4-6.5c6-3.6,2.9-10.5,1.7-12.2c-1.1-1.7-0.3-4.6-0.3-4.6c-1.4,1.1-1.7,0.3-3.6,1.7
				c-2.5,1.4-3.2,5.7-2.5,7.9c0.3,1.4,0.3,1.4,0.3,1.7c0,0.3-0.3,0.3-0.3,0.3c-0.3,0-1.1,0-0.3,0c0.3,0.8,0.3,1.1,0.3,1.1
				c1.1,0.3,1.7-0.3,1.4-2.2c-0.3-1.4-1.7-6,1.4-7.9c0.8-0.8,1.1-0.8,1.7-1.1c0,2.2,0,2.2,0.3,2.9c1.1,2.9,4.3,9-2.2,10.8
				c1.4,2.2,3.2,6.8,2.2,9.3c-1.4,2.2-4.3,5.1-5.7,6c1.4-10.5-12.2-15-9.7-8.2c-2.9,0-4.3-2.2-3.6-5.1c-1.7-0.3-2.2-0.3-4.3-3.2
				c-0.3-1.4-1.1-1.4-1.4-2.2c3.2-1.1,5.7-0.3,9.3,2.9c0.3,0.3,2.2,1.1,3.2,0c1.1-0.3,0-1.7-0.3-2.2c-1.7-2.9-4.6-3.6-6.5-5.1
				c-2.9-2.9-4.3-4.3-4.6-7.4c0-3.2,1.7-7.4,7.9-9.7c0.3-1.7,1.4-4.6,5.7-6c0.3,1.1,0.3,1.1,1.1,1.7c0,1.1,0,2.9-1.1,3.6
				c3.6,0.3,5.1,3.2,6.5,6c-1.4,1.1-2.2,1.1-5.1,1.1c-0.3,3.2-2.2,5.7-5.1,4.6c2.2-3.6-2.2-6.8-5.1-6c-2.2,1.1-3.6,3.6-3.6,5.7
				c0.3,1.4,0.3,0.3,0.3,0c0-1.1,0.3-3.2,3.2-4.3c0.3-0.3,1.7,0,2.9,0.3c-1.1,0-1.7,0.3-1.7,2.2c0,1.4,1.1,2.9,2.9,5.7
				c3.2,2.9,5.1,3.6,7.9,6c0.3,0.3,0.3,0.3,0.3,0c-0.3-0.3-3.2-2.9-4.3-3.2c-1.4-1.7-1.4-1.7-3.2-3.6c-1.4-1.4-1.4-1.7-2.9-4.3
				c-1.1-1.7,0.3-3.2,1.4-2.9c0,1.1,0.3,2.2-0.3,3.6c3.2,1.4,6.8-1.1,7.9-3.6c3.2,0.3,4.6-1.4,5.7-1.7c-0.3-0.3-1.1-2.2-2.2-3.6
				c-0.3-1.4-2.2-2.9-3.6-3.2c0.3-3.2,0-3.6-1.1-5.1c-0.3-0.3-0.3-1.1-0.3-1.4c-1.1,0.3-1.7,1.1-2.2,1.4c-1.4,0.3-3.2,1.7-4.3,5.1
				c-4.6,1.7-8.2,6.5-7.9,10.8c0,4.6,3.2,7.4,4.6,8.2c2.2,1.7,3.6,3.2,5.1,4.3c1.7,1.1,1.4,2.9-0.3,1.4c-2.9-1.7-4.3-3.2-7.4-3.2
				c-1.4,0-3.2,0.3-4.3,1.1c1.4,1.4,1.7,2.9,2.2,3.2c0.3,1.1,1.4,3.2,4.3,3.6c-1.1,5.1,5.1,7.4,6.5,5.1c-3.6-3.6,1.7-3.2,5.1,1.4
				c0,0,0,0,0.3,0.3c-2.2,0.3-3.6,1.1-6.8,0.3c-2.2-0.3-6-1.7-9.7-4.6c-0.3-0.3-0.3-0.3,0,0c1.7,1.4,4.6,3.6,6.5,4.3
				c2.9,1.4,6.8,1.7,10.8,1.1c0.3,1.1,0.3,1.7,1.1,2.2c-0.3,0.3-0.3,1.1-0.3,1.1h0.3c0,0.3,0,1.1,0,1.1l-0.3,0.3
				c0,0.3-0.3,0.3,0,1.1c-0.3,0-1.1,0-1.4,0.3c0,0.3,0,0.3,0,1.1c-0.3,0-1.1,0-1.1,0v-0.3c-0.3-0.3-1.1,0-1.4,0.3c0,0,0,0,0,0.3
				c-0.3,0-0.3,0-1.1,0c0-0.3,0-0.3,0-0.3c-0.3,0-1.1,0-1.1,0.3c-0.3,0-0.3,0-0.3,0c0-0.3,0-1.1,0-1.1c0-0.3-0.3,0-1.1,0
				c0,0.3,0,0.3,0,0.3c-0.3,0-0.3,0-0.3,0c0-0.3,0-1.1,0-1.1s-0.3,0-1.1,0.3c0,0,0,0,0,0.3c-0.3-0.3-0.3-0.3-1.1-0.3h0.8
				c0-0.3,0-0.3,0-0.3c0-0.3-0.3,0-0.3,0v0.3c-6-1.7-12.8-9-15-10.5c-1.4-1.4-2.9,0.3-2.2,2.2c0.3,1.1,1.4,2.2,2.9,3.6h-4.3
				c-1.7-1.7-4.3-6.5-5.7-10.5c-0.3,1.7-1.4,3.2-2.9,4.3c-0.3-0.3-0.3-2.9-0.3-3.6c0.3-1.4,0.3-1.4-1.1-0.3c-0.3,0-1.1,0.3-1.1,0.3
				c-0.3-0.3,0-2.2,0.3-3.2c0-0.3,0.3-1.1,1.1-1.1c0,0,0.3,0,1.1,0c0.3,0.3,1.1-0.3,1.1-0.3c0,0.3,0.3,0.3,1.1,1.1
				c0.3,0,1.1-0.3,1.1-0.3s0.3,0.3,1.1,0.3c0.3,0,1.1,0,1.7-0.3c0.3,1.4,3.2,2.2,4.3,0.3c1.4-1.4,0.3-3.6,0-4.3c0-0.3,0,0,0,0.3
				c1.1,1.7-1.4,4.6-3.6,2.9c0.3-1.7,0-4.6-2.9-5.1c0,0,0-0.3-0.3-0.3c0-0.3,0-0.3-0.3-1.1c2.2-1.1,3.6-4.3,1.1-5.1l-0.3-1.7
				l1.1,0.3c1.1,3.2,4.6,1.7,4.6,0.3c-1.1,0-1.4-1.1-1.4-1.7c-0.3-0.3,0-2.2,0-3.2c1.7,0,4.6-2.9,2.2-5.1c0,0-0.3,1.1-1.4,1.4
				c0.3-1.7,0-3.2,0-3.2c-1.1-1.4-1.4-2.2-3.2-1.7c1.1,1.1,1.1,2.9,0,3.2c-1.1,1.1-2.2,1.7-2.9,3.2c-0.3,0-1.1,0-1.1,0
				c0-0.3,0-1.4,0-2.2c1.1,0,1.4,0,1.7-0.3c0.3-0.3,1.4-1.1,1.1-1.1c0,0,0-0.3-0.3-0.3c-0.3-0.3-1.1-0.3-1.4-1.4
				c0.3-0.3,1.1-1.7,1.1-2.9c-0.3-0.3-1.4-0.3-1.7-0.3l-1.1-2.2c-1.1,0.3-1.4,1.1-1.7,1.1c0-1.1-0.3-1.4-0.3-1.4
				c-1.1,0.3-1.4,0.3-1.7,1.1l-1.7-0.8l6-3.2l1.7-2.9h-3.6l-13.9,6.8c0,0,0-0.3-0.3-1.1c0-1.1,0-1.1-0.3-0.3c-0.3,0-1.4,1.1-1.7,1.4
				c-0.3,0,0,0.3,0,1.4h-0.3c0,0.3,0,0-0.3,0.3c-0.3,0.3-0.3,0-1.1,0.3c-0.3,0-1.1,0.3-1.1,1.1c-1.1,0-1.1,0.3-1.4,1.4
				c-1.4,0.3-1.1,2.2,0.3,2.2c0.3,0,1.1,0,1.4-0.3h0.3c0,0.3,0.3,1.4,1.1,1.7l-0.3,1.1c-0.3,0-1.1,0-1.4,0.3v0.3c0,0-0.3,0-0.3,0.3
				c-0.3,0.3-1.1,1.1-1.1,1.1v0.3c-1.1,1.1-1.4,1.4-1.1,2.2c0.3-0.3,1.4-0.3,1.4-0.3c-0.3,0.3-0.3,1.1-0.3,1.1
				c-0.3,1.4-0.3,1.7,0.3,2.2c0.3-0.3,1.1-0.3,1.1-1.1c-1.1,1.7-0.3,2.9,0.3,2.9c0,0,0.3-0.3,0.8-0.3c1.1,1.7,2.2,4.3,5.1,6h0.3
				c1.4-1.1,2.9-2.2,4.3-4.3c0.3,0,1.1,0,1.4,0.3s0.3,0.3,0,0.3c-1.1,0.3-1.4,1.4-1.7,1.7c0,0.3-0.3,1.1-1.1,1.1
				c-0.3,0.3-1.4,1.1-1.4,1.4c-1.1-0.3-1.7-0.3-2.9,0c-1.1,0-1.7,0-2.2,1.1c-1.4-0.3-2.9,0.3-1.7,1.7c0.3,1.1,1.1,1.4,1.1,1.4v0.3
				c-0.3,0.3-1.1,1.1-1.4,1.4c-1.4,0-3.6-1.1-3.2-4.3c0,0,1.1-1.4-0.3,0c-1.4,1.4-1.7,4.6,2.9,5.7c-1.1,2.2-0.3,4.3,1.4,6.5
				c0,0,0.3,0.3,0.3,1.1c-0.3,1.1-1.7,2.9-3.2,4.6h-5.1c1.7-1.4,2.9-2.9,3.2-4.3s-0.3-3.2-2.2-1.7c-1.4,1.4-5.7,6.8-15.4,9.7
				c-1.7,0.3-3.2,1.1-4.3,1.1c-0.3-0.3-0.3-0.3-1.1-0.3c-0.3,0-0.3,0-0.3,0l-0.3-0.3c0-0.3-0.3-1.1-1.1-1.1c0,0.3,0,0.3,0,1.1
				c-0.3-0.3-0.3-0.3-0.3-1.1c0,0,0,0,0.3,0c0,0,0-0.3,0-1.1c-0.3-0.3-1.1-1.1-1.1-0.3c0,0,0,0-0.3,0c0,0,0,0,0-0.3h0.3
				c0,0,0-0.3,0-1.1c0,0,0-0.3-0.3-0.3c0,0,0-0.3,0.3-0.3c0.3,0,0.3-0.3,0-1.1c0-0.3,0-0.3,0-1.1c0.3,0.3,0.3,0.3,0.3,0.3
				c0,0.3,0.3,0.3,0.3,0.3c0.3,0,0.3-0.3,0-1.1c0,0,0,0,0-0.3c0,0.3,0.3,0.3,0.3,0.3s0,0,0.3,0c0,0.3,0,0.3,0,0.3
				c0.3,0,0.3,0,0.3-0.3c2.2,1.1,5.7,0.3,7.9-0.3c2.9-0.3,9.3-3.6,11.4-6.5c-2.9-2.9-1.4-7.4,4.3-9c0.3-0.3,0.3-0.3-0.3-0.3
				c-4.6,0.3-7.9,5.1-5.7,9.3c-3.2,3.2-9.3,5.7-12.8,6c-3.2,0.3-4.6,0.3-6-0.3c3.6-5.7,8.2-4.6,6.5-0.3c3.2,0.3,6-2.2,4.6-5.7
				c2.9-0.3,3.6-2.9,4.3-3.6c0.3-1.1,1.4-3.2,3.2-4.3c-1.4,0-2.9,0-4.3,0c-1.4,0-3.6,0-9,1.7c1.1-1.4,3.6-3.2,5.1-4.3
				c1.4-1.1,4.6-3.6,6-8.2c1.1-4.6-3.6-9.7-9-10.8c-0.3-3.6-2.2-5.1-3.2-5.7c-1.1,0-2.9-1.1-3.6-1.1c0,0,0,1.4,0,1.7
				c-0.3,1.1-1.1,1.4-1.1,4.3c-1.1,0.3-2.9,1.7-4.3,3.2c-1.1,1.4-1.1,2.9-1.7,3.2c1.4,0.3,3.2,1.7,5.7,1.7c0.3,1.7,2.9,5.7,6.8,5.1
				c-0.3-1.4,0-3.2,1.1-4.3c1.1,2.2-0.3,5.7-1.7,7.4c-1.4,1.4-1.7,1.7-2.9,2.2c-1.1,1.1-3.2,3.2-3.6,3.2c0,0.3,0,0.3,0.3,0
				c2.9-1.7,6-4.6,6.8-5.7c1.4-1.4,2.2-2.9,2.2-5.1c0,0.3,0.3,0.3,0.3,0v0.8c-0.3,0-0.3,0-0.3-0.3c0,0,0,0,0-0.3
				c0.3,0.3,1.1,0.3,1.1,0.3c0.3-0.3,0-1.1,0-1.1c-0.3-0.3-1.1-0.3-1.1-0.3s0-0.3-0.3-0.3c0.3,0,1.1-0.3,1.1-0.3
				c0,0.3,0.3,0.3,0.3,1.1c0.3,0.3,1.1,0.3,1.1,0c0.3,0,0-0.3,0-1.1c0.3,0.3,0.3,0.3,1.1,0.3c0,0.3,0,1.1,0.3,1.1
				c0.3,0.3,1.1,0.3,1.1,0.3c1.4,1.7,0.3,4.6,0,5.1c0.3-0.3,1.4-1.7,1.4-2.9c0-2.9-0.3-4.3-3.2-5.7c-2.2-1.1-6.8,1.1-6.5,5.1
				c-2.9,0-4.3-2.2-3.6-5.1c-2.2,0-3.6-0.3-5.1-1.1c1.1-2.9,2.2-4.6,5.7-5.7c-0.3-1.1-0.3-2.2,0-3.2c0.3-1.4,0.3-1.1,0.3-1.7
				c5.7,0.3,5.1,5.1,5.7,6c7.1,1.4,9,6.8,8.6,10c0,3.2-1.4,4.6-4.6,7.4c-1.4,1.4-5.1,2.9-7.4,6c0,0.3-0.3,1.1,0,1.4
				c0.3,0,0.3,0.3,1.1,0c3.2-3.2,6.5-3.6,11.1-2.9c-1.1,0.8-1.1,0.8-1.4,1.7c-1.4,3.6-2.9,3.2-4.6,4.3c2.2,1.4,1.1,4.6-1.4,4.3
				c1.1-6.8-13.6-1.1-10.5,9.7c-1.1-1.1-3.6-5.1-4.6-6.8c-1.1-3.2,0-5.7,1.4-9.7c-5.1-3.6-3.6-7.4-3.6-9.3c0.3-1.4,1.4-2.9,1.4-4.3
				c0.3,0,0.3,0,1.1,0.3c3.2,1.7,2.2,7.4,2.2,9c0,1.1,1.1,2.2,1.4,1.7c0.3-0.3,0.3-0.3,0.3-1.1c-0.3,0-0.3-1.1-1.1-2.2
				c1.1-2.2,0-6.5-2.2-7.9c-2.2-1.7-1.4-1.4-2.9-2.2c0,0,0.3,1.4-0.3,3.6c-1.1,2.2-2.9,8.2,2.2,12.5c-1.4,3.2-1.4,5.1-1.1,8.2
				c0,0,0,1.7,0.3,2.2l3.2,4.3c2.2,3.2,4.3,3.6,6.8,3.6c1.1,1.7,1.4,2.2,2.9,2.9c1.1,0.3,1.4-0.3,1.4-0.3c-0.3,0-2.2-0.3-2.9-2.9
				c1.1,0,2.2-0.3,4.3-1.1c1.4,1.1,3.2,1.1,5.7,0.3c1.4-0.3,3.6-1.7,5.1-3.2v3.2v1.1c0,0.3,0,0.3,0,0.3v1.1v0.3c0,0.3,0,0.3,0,0.3
				v0.3c-1.4,1.7-2.9,3.2-3.6,4.3c-0.3,0.3-0.3,0.3,0,1.1c1.1,2.9-1.4,4.3-2.9,5.1c-1.4,1.1-3.6,1.7-4.6,3.2
				c-1.1-1.7,0.3-4.3,1.1-4.6c0.3-1.1,1.4-1.7,1.1-3.2c-1.4,0.3-3.6,0.3-5.1,0c-1.1,0-4.3-0.3-6.8-0.3c-1.7-0.3-4.6,0-7.4,1.1
				c0-0.3-0.3-0.3-0.3-0.3c-0.3,0-0.3,0.3,0,1.1c-0.3,0-0.3,0-0.3,0c-0.3,0-0.3-0.3-1.1-0.3c0,0.3,0,0.3,0,1.1c0,0-0.3,0-0.3,0.3
				c0,0,0,0-0.3,0c0.3-0.3,0.3-1.1,0-1.1c0-0.3-0.3-1.1-1.1-1.1c0,0.3,0,1.1,0,1.4c0,0,0,0,0.3,0c-1.4-1.1-1.4-1.4-1.7-2.9
				c-0.3,1.7,0,4.3,4.6,5.1c3.2,0.3,5.7,0,5.7,0c1.1,0,1.4-0.3,1.4-1.1c0-0.3,0.3-1.1,1.1-1.7c0-0.3,1.1-0.3,1.4-0.3
				c0.3,0,3.2,0.3,3.2,0.3c0.3,0,1.1,0.3,0.3,1.1c-0.3,0.3-1.1,1.7-1.7,2.2l6-0.3c-0.3,2.2,0,4.6,0.3,5.7c1.4-1.4,3.6-2.9,4.6-3.2
				c1.1,0,1.7-0.3,2.2-1.1c0.3-0.3,0.3-0.3,1.1-0.3c0.3,0,2.9,0,3.6,1.1c0,0,0,0,0,0.3c0,0,0,0.3,0.3,1.1c-0.3,0-0.3,0-0.3,0
				c-0.3,0.3,0,1.1,0,1.1l0.3,0.3c0,1.1,0,1.7,0,2.9c0,0,0,0,0-0.3c-0.3,0-1.1-0.3-1.1,0c0,0,0,0.3,0,1.1c0.3,0.3,1.1,0.3,1.4,0.3
				c0,0,0,0,0-0.3c0,0.3,0,0.3,0,0.3c-5.7-1.4-13.6-1.4-18.2,0c0,0,9.7-1.1,18.2,1.7c0.3,0.3,0.3,1.1,0.3,1.7
				c-5.1-1.4-10.5-1.7-15.4-0.3c0,0,6-0.3,12.5,1.4c0,0,0,0.3,0.3,0.3l0.3,0.3c0-0.3,0-0.3,0.3-0.3c0,0,0.3,0,1.1,0
				c0,0.3,0,0.3,0,0.3c0,0.3,0.3,0.3,0.3,0.3c0.3,0,0.3,0,0.3-0.3h0.8c0,1.1,0.3,1.4,1.1,2.2c-0.3,0-0.3-0.3-0.3,0
				c-0.8-0.3-0.8,0-0.8,0c0.3,0.3,0.3,1.1,1.1,0.3c0,0,0,0,0.3,0c-0.3,0-1.1,0.3-1.1,1.1c-0.3-0.3-0.3-0.3-1.1-0.3
				c0,0.3,0,0.3,0,1.1c0,0-0.3,0-0.3,0.3c-0.3-0.3-0.3-0.3-0.3-0.3c-0.3,0.3-0.3,0.3-0.3,0.3c0,0.3,0,0.3-0.3,0.3h-0.3
				c0-0.3,0-0.3,0-0.3c0-0.3-0.3-0.3-0.3-0.3s0,0.3-0.3,0.3c-4.6-1.7-11.4-1.7-16.8,1.7l0.3,1.1c0,0,8.2-5.7,15.7-1.4
				c-4.3,1.4-9,2.2-9,2.2c5.1,0.3,13.9-1.4,15-4.3c1.1,1.4,1.7,2.9,2.9,3.6c-1.1,2.2-3.6,3.6-9,4.3c-2.9-1.1-6-1.7-9.3-3.2h-1.1v1.1
				l-2.9,7.9h1.1c11.1,5.1,26.1,7.4,41.5,6.5c12.5-0.3,24.7-3.2,31.2-6.5l1.1-0.3l-3.2-7.9H202c0-1.1,0-1.4-1.1-1.4
				c-1.7-0.3-6-1.1-9.3-2.2c7.9-3.2,16.2,1.4,16.2,1.4l0.3-1.1c-6-3.2-13.9-3.2-18.7-1.4c-0.3,0-1.1-0.3-1.4-0.3
				c0-0.3,0-1.1-0.3-1.4c0,0-0.3-0.3-1.1-0.3c0,0.3,0,0.3,0,0.3c-0.3,0-0.3-0.3-1.1-0.3c0,0,0,0,0-0.3c0.3,0.3,0.3,0.3,1.1,0.3
				c0-0.3,0-1.1-0.3-1.4c0,0,0,0,0.3-0.3c0,0.3,0,0.3,0,0.3c0,0.3,0.3,0.3,1.1,0.3c0,0,0-0.3,0-1.1l-0.3-0.3
				c6.8-3.6,16.8-3.2,16.8-3.2c-6.5-1.4-11.1-0.3-16.2,1.4c0-1.1,0-1.4,0.3-2.2c6-3.6,18.7-2.9,18.7-2.9c-4.6-1.4-11.4-1.1-16.8,0.3
				c0-0.3-0.3-0.3-1.1-0.3v0.3l-0.3,0.3c0-0.3,0-1.1,0-1.4c0,0.3,0.3,0.3,0.3,0V243v-0.8c0,0,0-0.3,0-1.1c0.3,0,0.3,0,0.3,0
				c0.3,0,0.3-0.3,0-0.3v-0.3c0-0.3,0-1.4,0-1.7s0-0.3,0-0.3c1.4-1.1,3.2-1.1,3.6-1.1c0.5,0,1.4,0,1.7,0.3c0.3,0.3,1.1,1.1,1.7,1.4
				c0.3,0.3,2.2,1.7,4.3,2.9c0.3-1.1,1.1-2.9,1.1-4.6c1.4-0.3,3.2,0,4.6,0.3c1.1,0,1.1-0.3,0.3-1.1c0-0.3-1.1-1.1-1.1-1.4
				c0,0-0.3,0,0.3-0.3c0,0,1.7,0,2.2,0c1.1-0.3,1.1-0.3,1.4,0c0.3,1.1,3.2,1.7,3.6,2.2c0,0,1.7,0.3,5.1-0.3
				C223.6,236.2,225,232.4,224.1,230.9z M121.9,234.4c0,0.3-0.3,0.3-0.3,0.3c-1.7,0.3-4.3,0-4.3,0c0.3-1.4,4.6-1.7,5.1-1.7
				L121.9,234.4z M130.5,235.2l0.3-1.1h3.6c0,0,0,0.3-1.1,1.1C133,235.2,130.5,235.2,130.5,235.2z M145.5,235.8
				c-1.1-0.3-1.7-0.3-2.9-0.3c0.3-1.4,0.3-2.2,0.3-3.2c1.1-0.3,1.4-1.4,2.2-2.2v5.7L145.5,235.8L145.5,235.8z M178.4,217.3l1.1,1.4
				h-1.4L178.4,217.3z M177.8,215.4l-0.3,3.2h-1.4L177.8,215.4z M173.1,216.5l0.3-0.3l-0.3-1.4l1.1,0.3c1.1-1.1,1.4-1.7,2.2-3.2
				l0.3,0.3c-1.4,2.2-5.1,6.8-9,9.3l-0.3-3.6c1.4-0.3,3.2-1.7,4.6-3.2L173.1,216.5z M172.4,209.7c0,1.1,0,1.7,0,1.7l-1.1-1.4
				L172.4,209.7z M171.6,213.4c-1.4,1.7-4.6,4.3-7.4,5.1l-2.2-4.3h0.3l1.7,3.6l1.1-0.3l-1.7-4.3h0.3l1.7,4.3l0.3-0.3l-1.7-4.3h1.1
				l1.4,3.2l0.3-0.3l-1.4-3.2l3.2-1.4l1.7,2.2l0.3-0.3l-1.1-1.7L171.6,213.4z M167,221.9l-0.3,0.3l-0.3-3.6l1.1-0.3v3.6H167z
				 M165.6,223l-0.3,0.3v-2.9h0.3V223z M165.6,207.7c-1.1,0.3-4.3,1.4-6,1.7c-0.3,0-0.3,0-1.1,0c0,0-1.1-1.1-1.4-1.1
				c-0.3-1.1-1.1-1.7,0.3-3.6c0,0,1.1,0,1.4-0.3c0,0-0.3,2.9-0.3,3.2c0,1.4,0.3,1.4,1.4,0.3l3.2-4.3c0.3,0,0.3,0,0,0.3
				c0,0.3-1.4,2.2-1.7,2.9c-0.3,1.1,0,1.1,0.3,0.3c0.3-0.3,2.9-3.2,3.2-3.6c0.3-0.3,0.3-0.3,0,0c0,0.3-1.1,1.7-1.4,2.2
				c-0.3,0.3-0.3,1.1,0.3,0.3c1.1-1.1,1.7-2.2,2.2-2.9c0.3,0,0.3-0.3,0.3,0c0,0.3-0.3,0.3-0.3,1.1c0,0.3,0,0.3,0.3,0.3
				c0.3-0.3,1.4-1.4,1.4-1.4c1.1,0.3,1.4,0.3,2.2,0l0.3,0.3c0,0-2.2,1.4-2.9,1.4c-0.3,0.3-0.3,0.3-0.3,1.1c0,0.3,0,0.3-0.3,0.3
				c0,0.3,0,0.3,0,1.1C166.4,207.3,165.6,207.3,165.6,207.7c-0.3,0-0.3,0-0.3-0.3V207C165.9,207.7,165.9,207.2,165.6,207.7z
				 M159.4,206.1l0.3-2.2c0.3,0.3,1.1,0,1.1,0L159.4,206.1z M173.1,202.9l-0.3-0.3c-0.3-0.3-1.1-0.3-1.1,0c0,1.1,0,1.4-0.3,0.3
				c-0.3-0.3-1.4-2.2-1.4-2.2c-0.8-0.8-0.8-1.1,0.3-0.8c0.3,0.3,1.1,1.1,1.1,0.3c0-1.1,0.3-0.3,1.1-0.3c0.3,0.3,1.4,1.4,1.7,2.9
				C174.2,204,173.5,203.2,173.1,202.9z M176.7,201.5c-0.3-0.3,0.3-1.4,1.4-0.3c1.1,0.3,1.1,1.4,1.1,1.7s-0.3,1.4-1.4,1.1
				c-0.3-0.3-1.1-0.3-1.4-0.3c0,0.3-1.1,1.1-1.1,0c-0.3-1.4-1.4-2.9-1.4-2.9c-0.3-0.3,0-1.1,1.1-0.3c0.3,0.3,0.3,1.1,0.3,1.4
				C175.6,201.8,176.7,201.8,176.7,201.5z M176.4,185.3c0,0.3,1.1,0.3,1.1,0c0,0-0.3-1.7,1.1-2.9c1.4-1.1,1.7-2.9,1.4-4
				c0,0,1.4,1.1,0.3,3.2c0,0.3-0.3,1.1-0.3,1.1v0.3c0.3,0.3,0.3,0.3,1.4,0.3c0.3,0,1.4-0.3,1.7-1.1c0.3,1.4-1.1,1.7-1.4,2.2
				c-0.3,0-1.4-0.3-1.4-0.3c-1.1,0-1.1,0.3-0.3,1.1c0.3,1.1,0,2.9,0,4.3c0,1.1,0.3,1.7,1.4,2.2c-1.7,1.1-2.2-1.4-2.2-2.2
				c0-0.3-0.3-0.3-1.1-0.3c-1.1,0.3-2.2,0-2.9-1.1c1.4,1.1,4.3,0,2.9-1.7c-0.3-1.1-1.7-0.3-2.9,1.4c0,0,0,0,0-0.3v-0.3
				c-1.4,0.3-1.1,1.7,0,2.9c0,0.3,0,0.3,0,1.1c0.3,0,0,0,0,0c-0.3,0-0.3,0-1.1,0c0-0.3-0.3-1.4-0.3-2.9
				C173.9,185.8,175,185.3,176.4,185.3z M176.4,187.9c0.3-0.3,1.1-1.1,1.1-1.1c0.3,0,0.3,0.3,0,1.1H176.4z M169.3,175l1.7-1.1
				l0.3,1.4l1.7-0.3v1.7h2.2c0,0.3-1.1,1.4-1.1,1.4h-1.1l-0.3-1.1h-0.3H171c-0.3,1.1-0.3,3.6,2.2,1.7c0.3-0.3,1.1,0.3,1.1,1.1
				c0.3,0.3,1.1,0.3,1.1,0.3c1.1,0,1.1,0,0,0.3c-0.3,0-1.4,0-1.7-0.3c-1.1,0-0.3,0.3-0.3,0.3c0,0.3,1.1,1.7,0,3.2
				c0-1.4-0.3-1.4-1.1-1.4c0,2.9-1.4,4.3-3.2,4.6c0.3-1.4,1.1-1.7,1.1-2.2c-0.3,0.8-0.8,0.8-0.8,0.8s-0.3,1.7-1.7,1.7
				c0-1.1,0-1.7,0-3.2l1.4-1.4c0.3,0.3,1.4,0.3,1.7,0c0.3,0,0.3,0,1.1,0c1.1,0,1.1-1.1,0.3-1.1c-1.1,0-1.4-0.3-1.1-1.7
				c0-0.3,0-0.3-0.3-0.3c-1.1,0.3-1.1,0-1.1-0.3c0-0.3-0.3-0.3-0.3,0c-0.3,0.3-1.1,1.1-1.7,0c0-0.3-1.1-0.3-0.3,0.3
				c0,0.3,0.3,0.3,0.3,0.3c-0.3,1.1,0,1.7,0.3,2.2l-1.1,1.1c-0.3,0-1.1,0-1.7,0v-0.8l-0.3,0.3c-1.1,0-1.4,0-1.7,0l1.4-1.7
				c-1.1,0-1.4-1.1-1.4-1.4c1.1,0,1.4,0.3,2.2,0c1.1,0,1.4-0.3,1.1-1.4c0-1.1,0-1.7,0.3-2.9l1.4,0.3l0.3,0.3
				c-0.3,2.2,1.7,2.9,2.2,0.3l-1.1-0.3V175H169.3l-0.3-0.3l0.3-0.3L169.3,175z M173.1,178.5c-0.3,1.1-1.4,0.3-1.1-0.3L173.1,178.5z
				 M173.1,189.3L172,189l-0.3,0.3l-1.4-1.4c1.7-0.3,2.9-1.7,2.9-3.2l0.3,0.3C172.4,186.1,172.4,187.9,173.1,189.3z M167.7,180.7
				c0.3,0,0.3,0,1.1,0l-1.1,1.4C167.7,181.4,167.7,181.1,167.7,180.7z M168.8,182.5l0.8-1.1c0,0.3,0.3,0.3,0.3,1.1
				C169.6,182.5,168.8,182.5,168.8,182.5z M162.5,178.5c0,0-0.3-0.3-0.3-1.1l4.3-2.2c-1.1,1.1-1.1,2.2-1.1,3.2
				c-0.3,0.3-1.4,0.3-2.2-0.3c-1.1,0.3-1.1,2.9,0,3.2l-1.4,1.4c-1.1-1.1-1.7-2.2-1.7-3.2C160.2,179.9,162.8,179.3,162.5,178.5z
				 M167,175l0.3-0.3v0.3H167z M168.8,176.8l1.1,0.3C169.3,178.2,168.5,177.6,168.8,176.8z M173.5,167.4h2.2l-1.1,1.7l-13.6,7.4
				v-0.8l11.1-6c0.3-0.3,0.3-1.1-0.3-0.3c-0.3,0-11.1,6-11.1,6l-1.1-1.1L173.5,167.4z M157.7,174.6c0.3-0.3,0.3-0.3,1.1,0
				c0.3,1.1,0.3,1.1,1.1,1.1c0.3,0.3,0.3,1.1,0.3,1.4s0.3,1.1,0.3,1.4c0.3,0.3,0.3,0.3-0.3,1.1c-1.1,0-0.3-0.3-0.3-1.1
				c0.3-1.4,0-1.7,0-1.7c-0.3-0.3-0.3-1.1-1.7-1.1C157.1,175.3,157.7,174.6,157.7,174.6z M156.6,176.5c0,0,0.3-0.3,1.1-0.3
				c0,0,0.3,0.3,0.3,1.1c0.3-0.3,0.3,0.3,0.3,0.8s0,0.3,0,1.1s-0.3,1.4,0,1.7c0.3,0.3,1.1,1.7,1.4,2.2c-1.4,0-2.2,0-3.2,0v-0.8
				c-1.1-1.1-1.1-1.1-1.1-1.7h1.1v0.3l0.3-1.1c0,0,0,0,0-0.3c0.3-0.3,0.3-0.3,0.3-1.1c0-1.1,0-1.1-0.3-1.1c0,0,0,0.3-0.3,0.3
				c0,0,0,0,0-0.3l-0.3-0.3L156.6,176.5z M155.6,177.6l0.8,0.3h-0.3v-0.3H155.6z M153.1,179.9c0,0-0.3,0-0.3-0.3l0.3-0.3
				c0.3,0,0.3,0.3,0.3,0.3C153.4,179.9,153.4,179.9,153.1,179.9z M155.2,179.3h-0.3c-0.3,0.3-0.3,0.3-0.3,0l-0.3-0.3
				c-0.3-0.3,0-0.3,0.3-1.1c0,0,0,0,0.3,0c0-0.3,0-0.3,0-0.3c0.3,0,0,0,0.3-0.3c0,0.3,0,1.1,0,1.1s0,0,0,0.3c0,0,0,0,0.3,0h0.3
				c0.3,0,0.3,0,0.3,0.3c0,0,0,0,0,0.3c0-0.3-0.3,0-0.3,0s0,0-0.3,0C155.6,179.3,155.6,179.3,155.2,179.3z M154.9,184.7
				c3.2-1.4,9-1.4,11.4,0c0,0.3,0,1.1,0,1.1c-0.3,0-1.1,1.1-1.1,1.4c0,0.3,0,0.3,0,0.3c-0.3,0-0.3,0-0.3-0.3c0-0.3,0-1.4-1.1-1.4
				c-0.3,0-1.1,1.1-1.1,1.1c0,1.1,0,1.1,0,1.1c-0.3,0-0.3,0-0.3-0.3s0-1.4-1.1-1.4c-0.3,0-1.1,1.1-1.1,1.4s0,0.3,0,0.3
				c-0.3,0-0.3,0-0.3-0.3s0-1.4-1.1-1.4c-0.3-0.3-0.3,0.8-0.3,1.1c0,0.3,0,0.3-0.3,0.3c0,0,0,0,0-1.1c0,0-0.3-1.1-1.1-1.1
				c-1.1,0-1.1,1.1-1.1,1.4s0,0.3-0.3,0.3c0,0,0,0,0-0.3s-0.3-1.4-1.1-1.4C154.9,184.7,154.9,184.7,154.9,184.7z M152,187.9
				c0-0.3,0-1.1,0.3-1.4v1.1C152.3,187.5,152.3,187.5,152,187.9z M152.3,186.8c0,0,0.3-1.1,1.1-1.1c0.3,0.3,0.3,1.1,0.3,1.4h-1.1
				L152.3,186.8z M153.1,190.7c0-0.3-0.3-1.1,0-1.4l0.3,0.3C153.4,190.1,153.1,190.4,153.1,190.7z M153.7,190.1l-0.3-1.1
				c0-0.3,0.3-1.1,0.3-1.4c0,1.1,0,1.4,0.3,1.7L153.7,190.1z M154.5,192.6c0,0-0.3-0.3-0.3-1.1l0.8,0.8
				C154.9,192.1,154.5,192.1,154.5,192.6z M154.5,191.5l0.3-0.8c0,0.3,0,0.3,0,1.1L154.5,191.5z M161,197.2c-4.6-3.2-6-8.2-6-11.1
				c0,0,0.3,0.3,0.3,1.1c0,0.3,0,1.1,0.3,1.1c1.1,0,1.1-0.3,1.1-1.1c0-0.3,0.3-1.1,0.3-1.1s0,0.3,0.3,1.1c0,0.3,0,1.1,0.3,1.1
				c1.1,0,1.1-0.3,1.1-1.1c0-1.1,0.3-1.1,0.3-1.1s0,0,0.3,1.1c0,0.3,0,1.1,1.1,1.1c0.3,0,0.3-0.3,0.3-1.1c0.3-1.1,0.3-1.1,0.3-1.1
				c0.3,0,0.3,0,0.3,1.1c0,0.3,0,1.1,1.1,1.1c0.3,0,0.3-0.3,1.1-1.1c0-0.3,0-1.1,0-1.1c0.3,0,0.3,0.3,0.3,1.1c0,0.3,0,1.1,1.1,1.1
				c0.3,0,0.3-0.3,0.3-1.1c0.3-0.3,0.3-0.3,0.3-1.1C165.9,191.5,163.1,195.5,161,197.2z M166.3,196.1l-0.3,0.3L166.3,196.1z
				 M165.9,198.3c0.3-1.1,1.4-1.4,1.7-2.2c1.1-0.3-0.3-2.9-2.2-3.2c0.3-0.3,1.1-1.1,1.1-1.7c0.3,0,1.1,0.3,1.7,0.3
				c-0.3-1.1-1.4-1.1-1.4-1.1c0-0.3,0-1.4,0.3-1.7c1.1-0.3,2.2-0.3,3.2,1.7c1.1,2.2,0,2.9,1.4,5.1c1.1,1.4,4.3,0.8,4.3-0.8
				c-0.3-1.4-1.1-1.4-1.7-1.7c-1.1,0-1.7-1.1-1.7-2.2c1.1,1.4,1.7,1.4,1.7,1.4c0.3,0,1.7,0.3,2.2,1.7c-0.3,0.3,0,0.3,0,0.3
				c1.4,0,1.4,2.9-2.2,3.2c1.4,1.1,1.4,1.4,1.4,1.7c0.3,0.3,0,0.3-0.3,0.3c0-0.3-1.4-1.1-1.7-0.3h-0.3c-1.4-0.3-2.9-1.1-3.2,0
				c-0.3-0.3-1.7-0.3-1.7,0c-1.1-0.3-1.1,0-1.4,0C166.3,199.4,165.6,199.4,165.9,198.3z M172.1,191.8c0,0,0.3,1.4,1.7,1.7
				c1.7,0.3,0.3,1.7-0.3,1.4C172.4,195,172.1,193.2,172.1,191.8z M165.9,200.1l0.3,0.3c0.3,0.3,0.3,0,0.3,0c0.3-0.3,0.3-0.3,1.1-0.3
				c0.3,0.3,1.1,1.1,1.4,1.7c0.3,1.4-0.3,1.1-0.3,1.1c0-0.3-0.3-1.1-1.1-1.1c-0.3-0.3-0.3,0-0.3,0s0,0-0.3,0.3c0,0.3,0,0.3,0,0
				c-0.8-0.3-1.4-2.2-1.4-2.2C164.8,200.1,164.8,199.4,165.9,200.1z M164.8,197.8l-0.3,1.1L164.8,197.8z M161.7,200.1
				c0.3,1.1,0,0.3,0.3,1.1c0.3,0,0.3,0,0.3-0.3l0.3-0.3c0-0.3,0.3-0.3,0.3,0c0.3,0,1.4,1.4,1.4,1.7s-0.3,1.1-1.4,0.3
				c-0.3-1.1-1.1-0.3-1.1,0c0,1.1-0.3,0.3-0.3,0.3c-0.3-0.3-1.4-2.2-1.4-2.2C160.2,200.1,161,199.7,161.7,200.1z M156.3,201.5
				c-0.3-0.3-0.3-1.1,1.4-0.3c1.1,0.3,0.3,0,0.3-0.3c0-0.3,1.1-0.3,1.4,0c0.3,0.3,1.1,1.4,1.4,1.7c0,0.3-0.3,1.1-1.1,0.3
				c-0.3-0.3-0.3-0.3-0.3-1.1c-0.3,0-0.3,0-1.1,0.3c0,0,0,0.3,0,1.1c-0.3,0-0.3,0.3-1.1,0C157.1,202.9,156.3,201.5,156.3,201.5z
				 M156.6,204.3h0.3c-1.4,1.4-2.2,4.3-1.4,5.1c1.1,1.1,1.4,1.4,2.2,1.7c1.1,1.1,1.1,1.1,1.7,0.3c1.4,0,6.5-1.7,7.9-2.9
				c0.3,0,0.3,0,1.1-1.1c0-0.3,0.3-1.4,0.3-1.4l1.4-1.1l-0.3,1.4l-0.8,0.8l0.3,1.7c-1.7,1.4-7.4,3.2-10.8,4.6
				C154.9,211.1,152.3,209.1,156.6,204.3z M157.1,215.9c1.4,1.4,2.9,2.9,4.6,3.6v5.1c0,0-1.7-1.7-3.2-3.2c-1.1-1.4-1.4-2.2-1.4-3.2
				V215.9z M157.1,213.7l2.2,1.4l1.4,2.2C159.1,216.5,157.1,213.7,157.1,213.7z M156.3,216.8c0,0.3,0,1.4,0,1.7h-1.4
				C155.2,217.9,155.6,217.3,156.3,216.8z M146.6,218.7h-1.1v1.1c0,0-0.3,0.3-1.1,1.1c-2.9,1.7-6,2.9-7.4,2.2c5.1-2.2,9.7-6,12.2-9
				c0.3-0.3,1.4,0,0.3,1.1C149.8,215.4,148.4,216.8,146.6,218.7z M153.4,260.2c1.1,1.1,1.7,1.7,3.2,2.9c1.4,1.1,2.9,2.2,4.3,2.9
				c-4.6-0.3-9.3-1.1-14.3-2.2C148.8,262.8,152,262,153.4,260.2z M200.8,262c0.3,1.1,1.7,4.3,1.7,5.1c-12.8,6.8-45.4,10.5-69.8,0.3
				c0-1.1,1.4-4.6,1.7-6c11.4,4.3,20.7,6,30.1,6c1.4,0.3,2.2,1.1,2.2,1.1h0.3c0,0,1.1-0.3,2.2-1.1C179.9,267,189.2,265.3,200.8,262z
				 M174.2,265.6c1.1-1.1,2.9-1.7,4.3-2.9c1.4-1.4,2.9-2.9,4.3-4.6c1.1,3.2,3.6,4.3,6.5,5.1C183.5,264.2,178.9,265.3,174.2,265.6z
				 M194.9,259.1c0,0.3,0.3,0,0.3,0c0.3,0,0.3,0,1.1,0.3c0.3,0.3,0.3,0,1.1,0c0,0,0,0,0.3,0c0,0.3,0,0.3,0,0.3c0.3,0,1.1,0,1.1,0
				c0.3,0,0,0.3-0.3,1.1c0,0,0-0.3-0.3-0.3c0-0.3-0.3,0-0.3,0.3c-0.3,0-0.3,0-0.3,0.3c0,0-0.3,0-1.1,0c0,0,0,0-0.3,0
				c0,0-0.3,0-0.3,0.3c-1.4,0.3-2.9,0.3-3.6,1.1c-5.1-1.4-6.8-2.9-7.4-5.7c0.3-1.1,1.4-1.7,1.7-3.2
				C186.7,256,189.5,257.7,194.9,259.1z M187.5,233h-0.3l-0.3,0.3v0.3L187.5,233c0,2.9,0,5.1,0,5.1c0,9.7-3.2,17.6-10.5,23.3
				c-2.9,2.2-6,3.6-7.9,4.6c-1.1,0-2.2,0-3.2,0c-2.2-1.1-5.1-2.2-8.2-4.6c-5.1-4.3-8.2-9.7-9.7-16.8l3.2-3.2h-0.3l-3.2,3.2
				c0-1.1,0-1.4,0-1.7l1.7-1.7l-0.3-0.3l-1.4,1.4c0-0.3-0.3-1.1-0.3-1.7l2.2-1.7v-0.3l-2.2,1.7c0-0.3,0-1.1,0-1.4c0,0,0,0,0-0.3
				l2.9-2.2l-0.3-0.8l-2.2,2.2c0-0.3,0-1.1,0-1.7l1.4-1.1l-0.3-0.3l-1.4,1.1c0-0.3,0-1.1,0-1.7l1.4-1.1l-0.3-0.8l-1.1,1.1
				c0-0.3,0-1.1,0-1.7h1.1c0.3,0,1.1,0.3,1.1,0.3c0,0.3,0,0.3,0,1.1c-0.3,0.3-1.1,1.1-0.3,1.4c0,0.3,0.3,1.4,2.2,1.4
				c1.4,0,1.7-1.1,1.7-1.4c0.3-0.3,0-1.1-0.3-1.4c0-0.3,0-0.3,0-0.3c0-0.3,0.3-1.1,1.4-1.1c1.1,0,1.4,0.3,1.4,0.3c0,0.3,0,0.3,0,1.1
				c-0.8,0.3-0.8,0.8-0.8,1.4c0,0.3,0.3,1.4,2.2,1.4c1.7,0,2.2-1.1,2.2-1.4c0-0.3,0-1.1-0.3-1.4c0-0.3,0-0.3,0-1.1
				c0,0,0.3-0.3,1.4-0.3s1.4,0.3,1.4,0.3c0.3,0.3,0,0.3,0,1.1c-0.3,0.3-0.3,1.1-0.3,1.4c0.3,1.1,1.4,1.4,2.9,1.4
				c1.7,0,2.2-1.1,2.2-1.4c0-0.3,0-1.1-0.3-1.4c0-0.3,0-0.3,0-1.1c0,0,0.3-0.3,1.4-0.3c1.1,0,1.4,0.3,1.7,0.3c0,0.3,0,0.3-0.3,1.1
				c-0.3,0.3-0.3,1.1-0.3,1.4c0.3,0.3,1.1,1.4,2.2,1.4c1.4,0,2.2-0.3,2.9-1.4c0-0.3,0-1.1-0.3-1.4c0-0.3,0-0.3,0-1.1
				c0,0,0.3-0.3,1.4-0.3s1.4,0.3,1.7,0.3c0,0.3,0,0.3-0.3,1.1c-0.3,0.3-0.3,1.1-0.3,1.4c0.3,0.3,1.1,1.4,2.2,1.4
				c1.7,0,2.2-1.1,2.2-1.4c0.3-0.3,0.3-1.1,0-1.4c-0.3-0.3-0.3-0.3-0.3-1.1c0.3,0,0.3-0.3,1.4-0.3c1.1,0,1.4,0.3,1.4,1.1
				c0,0,0.3,0,0,0.3c-0.3,0.3-0.3,1.1-0.3,1.4c0.3,0.3,1.1,1.4,2.2,1.4c1.4,0,1.7-1.1,1.7-1.4c0.3-0.3,0.3-1.1,0-1.4
				c-0.3-0.3-0.3-0.3-0.3-1.1c0.3,0,0.3-0.3,1.1-0.3h1.1C187.5,231.6,187.5,232.7,187.5,233z M187.5,229.8h-1.1
				c-0.3,0-1.4,0.3-1.7,1.1c0,1.1,0,1.4,0.3,1.7c0.3,0,0.3,0.3,0,0.3c0,0.3-0.3,1.1-1.1,1.1c-1.1,0-1.4-0.3-1.4-0.3
				c0-0.3,0-0.3,0.3-1.1c0.3-0.3,0.3-1.1,0-1.4c0-1.1-1.1-1.4-2.2-1.4s-1.7,0.3-2.2,1.4c0,0.3,0,1.1,0.3,1.4c0,0,0.3,0.3,0,0.3
				c0,0.3-0.3,1.1-1.4,1.1c-0.3,0-1.1-0.3-1.4-1.1c0,0,0-0.3,0.3-0.3c0.3-0.3,0.3-1.1,0-1.4c0-1.1-1.1-1.4-2.2-1.4s-1.7,0.3-2.2,1.4
				c0,0.3,0,1.1,0.3,1.4v0.3c0,0.3-0.3,1.1-1.7,1.1c-0.3,0-1.1-0.3-1.4-1.1c0,0,0-0.3,0.3-0.3c0.3-0.3,0.3-1.1,0.3-1.4
				c-0.3-1.1-1.1-1.4-2.9-1.4c-1.4,0-2.2,0.3-2.2,1.4c-0.3,0.3,0,1.1,0.3,1.4v0.3c0,0.3-0.3,1.1-1.4,1.1s-1.4-0.3-1.7-1.1
				c0,0,0-0.3,0.3-0.3c0.3-0.3,0.3-1.1,0-1.4c0-1.1-1.1-1.4-2.2-1.4c-1.1,0-1.7,0.3-2.2,1.4c-0.3,0.3,0,1.1,0.3,1.4
				c0,0.3,0,0.3,0,0.3c0,0.3-0.3,1.1-1.4,1.1c-1.1,0-1.4-0.3-1.4-1.1v-0.3c0.3-0.3,1.1-1.1,0.3-1.4c-0.3-1.1-1.1-1.4-2.2-1.4
				c-1.4,0-1.7,0.3-2.2,1.4c0,0.3,0,1.1,0.3,1.4c0,0.3,0,0.3,0,1.1c0,0-0.3,0.3-1.1,0.3c-1.1,0-1.4-0.3-1.4-1.1v-0.3
				c0.3-0.3,0.3-1.1,0.3-1.7c-0.3-0.3-1.1-1.1-1.7-1.1H146c0-4.3,0-8.2,0-9.3c0.3,0,4.3,0,9.3,0c0.3,0.3,0.3,1.1,1.1,1.1
				c1.1,1.4,2.9,3.6,5.1,5.1c3.2-1.4,6.5-3.6,9.3-6c7.9,0,14.3,0,15.4,0C187.5,221.6,187.5,225.9,187.5,229.8z M188.1,218.7
				c-1.7-1.4-2.9-3.2-3.2-3.6c-0.3-1.1,0-1.4,1.1-1.1c2.2,2.9,5.7,6,10.5,9c-1.7,0-2.9-1.1-6-2.2c-0.3-0.3-0.3-1.1-1.1-1.1v-1.1
				h-1.3V218.7z M189.2,236.2v-7.9c0.3,1.1,1.7,1.7,2.2,2.2c0.3,0.3,0.3,0.3,0.3,0.3c0.3,1.4,1.1,2.9,1.4,4.3
				C192.1,235.5,190.6,235.5,189.2,236.2z M201.4,235.5v-0.3c0,0,1.7,0,2.9,0.3c0.3,0,0.3,0,0.3,0.3L201.4,235.5z M216.8,235.8
				c-3.2,0-4.6-1.7-4.6-1.7c2.2-0.3,4.3-1.1,6.5-1.1c1.4,0,2.2,0.3,2.9,1.1h0.3C220.1,235.5,218.7,235.8,216.8,235.8z"/>
			<path class="st0" d="M219.3,231.2c-0.3,0.3-0.3,0.3-0.3,1.1c0.3,0,1.1,0,1.1-0.3c0.3-0.3,0.3-1.1,0-1.1
				C220.1,230.9,219.3,230.9,219.3,231.2z"/>
			<path class="st0" d="M154.5,231.2h-0.8l-0.8,1.1h0.3L154.5,231.2z"/>
			<path class="st0" d="M154.5,233.8h-0.8l-1.7,1.7L154.5,233.8z"/>
			<path class="st0" d="M153.1,237.3l2.2-2.2l-0.3-0.8l-2.5,2.9h0.6V237.3z"/>
			<path class="st0" d="M153.1,239.8l3.6-4v-0.3l-3.6,3.6V239.8z"/>
			<path class="st0" d="M161.3,231.2H161l-1.1,1.4L161.3,231.2z"/>
			<path class="st0" d="M152,242.3l-3.6,4h0.3l3.6-4H152z"/>
			<path class="st0" d="M155.2,239.8h-0.3l-1.1,0.8v0.3L155.2,239.8z"/>
			<path class="st0" d="M161.3,234.1H161l-2.9,2.2l0.3,0.8L161.3,234.1z"/>
			<path class="st0" d="M150.3,246.6l-1.1,1.1v0.3l1.1-1.1V246.6z"/>
			<path class="st0" d="M152.3,244.4l0.8,0.3l0.3-0.3h-0.3H152.3z"/>
			<path class="st0" d="M156.3,240.9l-1.1,0.8l0.3,0.3l0.8-0.3V240.9z"/>
			<path class="st0" d="M159.1,238.7l3.6-3.2l-0.3-0.3l-4,3.6h0.6V238.7z"/>
			<path class="st0" d="M150.6,248.4l-0.8,1.1l0.3,0.3l0.8-0.8L150.6,248.4z"/>
			<path class="st0" d="M153.7,246.3l-0.3-0.8v0.8H153.7z"/>
			<path class="st0" d="M161.3,238.7H161l-4,3.6l0.8,0.8L161.3,238.7z"/>
			<path class="st0" d="M164.8,235.2l-1.1,0.8l0.3,0.3L164.8,235.2z"/>
			<path class="st0" d="M167.4,233l1.1-0.8l-0.8-0.8l-0.8,1.1L167.4,233z"/>
			<path class="st0" d="M154.5,247.7l-4,3.6L154.5,247.7z"/>
			<path class="st0" d="M158.5,243l0.8,0.3l2.2-2.9L158.5,243z"/>
			<path class="st0" d="M164.8,238.4l3.6-3.2l-0.8-0.8l-3.2,3.2L164.8,238.4z"/>
			<path class="st0" d="M154.9,249.1l-4,3.6l0.8,0.3l3.6-3.6L154.9,249.1z"/>
			<path class="st0" d="M162.8,240.9l-1.4,1.4l0.3,0.8l1.4-1.4L162.8,240.9z"/>
			<path class="st0" d="M164.8,239.8l0.8-1.1l-1.1,0.3L164.8,239.8z"/>
			<path class="st0" d="M169.6,235.5l-1.1,0.8l0.3,0.8L169.6,235.5z"/>
			<path class="st0" d="M152.3,253.7l-0.3,0.8l1.1-0.3L152.3,253.7z"/>
			<path class="st0" d="M155.6,251.2l0.8-0.3h-0.8h-0.3L155.6,251.2z"/>
			<path class="st0" d="M169.6,238.4l2.2-2.2l-0.8-0.3l-1.7,1.7L169.6,238.4z"/>
			<path class="st0" d="M181.3,231.6l-0.3-0.3l-0.8,1.1L181.3,231.6z"/>
			<path class="st0" d="M153.1,256l0.8-0.3h-0.3L153.1,256z"/>
			<path class="st0" d="M156.6,252.6l-0.3-0.3v0.3v0.3L156.6,252.6z"/>
			<path class="st0" d="M164.2,245.5v-0.3l-1.1,1.1h0.8L164.2,245.5z"/>
			<path class="st0" d="M169.6,239.8h0.8l0.3-0.8v-0.3L169.6,239.8z"/>
			<path class="st0" d="M174.2,233.8h-0.3l-1.4,1.4l0.8,0.3L174.2,233.8z"/>
			<path class="st0" d="M173.5,236.9l1.4-1.4v-0.3l-1.4,1.1V236.9z"/>
			<path class="st0" d="M156.6,254.5l-2.9,2.9h0.8l2.5-2.5L156.6,254.5z"/>
			<path class="st0" d="M171,240.9v-0.3l-0.8,1.1h0.3L171,240.9z"/>
			<path class="st0" d="M174.2,238.7l2.9-2.9l-0.3-0.3l-2.9,2.9L174.2,238.7z"/>
			<path class="st0" d="M158,255.6l-2.9,3.2l2.9-2.9V255.6z"/>
			<path class="st0" d="M176.7,238.4v-0.8l-4.6,4.6h0.3L176.7,238.4z"/>
			<path class="st0" d="M159.9,256.3l-3.2,3.2l3.2-2.5V256.3z"/>
			<path class="st0" d="M175,242l0.3,0.3l1.4-1.7L175,242z"/>
			<path class="st0" d="M181.3,234.1l-0.3-0.3l-2.2,2.2h0.8L181.3,234.1z"/>
			<path class="st0" d="M157.7,260.5l0.3,0.3l3.6-3.6l-0.3-0.3L157.7,260.5z"/>
			<path class="st0" d="M177,243.4l1.4-1.7v-0.8l-1.7,2.2L177,243.4z"/>
			<path class="st0" d="M179.9,237.6l2.9-2.2l-0.8-0.3l-2.5,2.2L179.9,237.6z"/>
			<path class="st0" d="M160.2,260.2l-1.1,1.4v0.3l1.7-1.7H160.2z"/>
			<path class="st0" d="M163.1,258.5l1.1-1.1L163.1,258.5z"/>
			<path class="st0" d="M182.1,237.3l-2.2,2.5l0.3,0.3l2.5-2.5L182.1,237.3z"/>
			<path class="st0" d="M160.2,262.8l0.8-0.3v-0.3L160.2,262.8z"/>
			<path class="st0" d="M164.2,259.4l2.9-2.2h-0.8L164.2,259.4z"/>
			<path class="st0" d="M185.7,235.2v-0.8l-1.1,1.1v0.3L185.7,235.2z"/>
			<path class="st0" d="M185.7,237.3l1.1-1.4l-0.3-0.3l-1.4,1.4L185.7,237.3z"/>
			<path class="st0" d="M185.7,238.7l0.3,0.3l0.8-0.8v-0.8L185.7,238.7z"/>
			<path class="st0" d="M186,231.6l0.3,0.8l0.3-0.8l-0.3-0.3L186,231.6z"/>
			<path class="st0" d="M168.8,257.4l-1.4,1.4l0.3,0.3l1.4-1.4L168.8,257.4z"/>
			<path class="st0" d="M182.1,243l1.4-1.4v-0.8l-1.4,1.4V243z"/>
			<path class="st0" d="M184.1,243v0.3l2.2-2.5v-0.3L184.1,243z"/>
			<path class="st0" d="M184.6,244.9v0.3l1.7-1.7v-0.3L184.6,244.9z"/>
			<path class="st0" d="M184.9,246.9l1.4-0.8l-0.3-0.8L184.9,246.9z"/>
			<path class="st0" d="M169.3,259.4l2.5-2.2v-0.3l-2.9,2.5H169.3z"/>
			<path class="st0" d="M181.8,244.9l-0.8,1.4l1.1-1.1L181.8,244.9z"/>
			<path class="st0" d="M164.8,265.3l0.8,0.3l0.8-0.8l-0.3-0.8L164.8,265.3z"/>
			<path class="st0" d="M169.3,262.4l1.7-1.7l-0.3-0.3l-1.7,1.7L169.3,262.4z"/>
			<path class="st0" d="M175,256.3l-1.4,1.4v0.8l1.7-2.2H175z"/>
			<path class="st0" d="M182.1,254.2h0.8l0.8-1.1v-0.5L182.1,254.2z"/>
			<path class="st0" d="M178.4,253.7l0.3-1.1l-0.8,0.3L178.4,253.7z"/>
			<path class="st0" d="M179.9,249.8l1.7-1.7h-0.3l-1.7,1.4L179.9,249.8z"/>
			<path class="st0" d="M168.5,265.3l3.2-2.9l-0.8-0.3L168.5,265.3z"/>
			<path class="st0" d="M178.4,254.8l-4.6,4.6l0.3,0.8l4.6-4.6L178.4,254.8z"/>
			<path class="st0" d="M182.7,249.1l-1.4,1.1v0.8l1.7-1.7h-0.3V249.1z"/>
			<path class="st0" d="M171.6,264.2h0.3l1.1-0.8l-0.8-0.8L171.6,264.2z"/>
			<path class="st0" d="M174.2,261.7h0.8l5.4-5.4L180,256L174.2,261.7z"/>
			<path class="st0" d="M182.1,251.7v0.8l2.9-2.9v-0.3L182.1,251.7z"/>
			<path class="st0" d="M177.8,260.2v0.3l2.2-2.2L177.8,260.2z"/>
			<path class="st0" d="M167.4,231.2H167l-0.8,0.3h0.8L167.4,231.2z"/>
			<path class="st0" d="M174.2,231.2l-0.3-0.3l-0.3,0.8L174.2,231.2z"/>
			<path class="st0" d="M165.6,262.8l-1.7,2.2h0.3l1.7-2.2H165.6z"/>
			<path class="st0" d="M162.5,263.9h0.3l3.6-3.6h-0.3L162.5,263.9z"/>
			<path class="st0" d="M187.5,208l-1.1,1.1c-1.1-0.3-2.9-1.7-2.9-1.7C185.7,207.7,187.5,208,187.5,208z"/>
			<path class="st0" d="M183.2,211.1l-1.1,1.1l-0.8-2.9L183.2,211.1z"/>
			<path class="st0" d="M206.8,221.9c-0.3,0-0.3-0.3,0-1.1c0.3-0.3,0.3-0.3,1.1-0.3c0,0,0,0.3-0.3,1.1
				C207.4,221.9,206.8,221.9,206.8,221.9z"/>
			<path class="st0" d="M204.6,222.7c-0.3,0-0.3-0.3,0-1.1c0,0,0.3-0.3,1.1,0c0,0,0,0.3-0.3,0.3
				C205.1,222.7,204.6,222.7,204.6,222.7z"/>
			<path class="st0" d="M205.4,223.3c-0.3,0,0-0.3,0-1.1c0.3-0.3,1.1-0.3,1.1-0.3c0.3,0,0,0.3,0,1.1
				C206,223.3,205.4,223.3,205.4,223.3z"/>
			<path class="st0" d="M204.6,220.2c0,0,0,0,0-0.3c0.3,0,0.3,0,0.3,0v0.3H204.6z"/>
			<path class="st0" d="M208.2,217.9c0,0,0,0,0.3,0c0-0.3,0-0.3,0-0.3c0.3,0,0,0.3,0,0.3S209,218.3,208.2,217.9z"/>
			<path class="st0" d="M206.8,219.7c0-0.3,0-0.3,0.3-1.1c0,0,0,0,0.3,0c0,0,0,0.3-0.3,0.3C207.4,219.7,207.4,219.7,206.8,219.7z"/>
			<path class="st0" d="M203.2,221.9c0-0.3,0-0.3,0-1.1c0.3,0,0.3,0,1.1,0c0,0,0,0.3-0.3,0.3C203.6,221.9,203.2,221.9,203.2,221.9z"
				/>
			<path class="st0" d="M200,222.7c-0.3,0-0.3-0.3,0-0.3C200,222.7,200,222.7,200,222.7z"/>
			<path class="st0" d="M202.2,221.6c0-0.3,0-0.3,0-0.3s0.3-0.3,0.3,0C202.2,221.6,202.2,221.6,202.2,221.6z"/>
			<path class="st0" d="M207.9,220.5c0,0,0-0.3,0.3-1.1c0-0.3,0.3-0.3,1.1-0.3c0,0,0,0.3-0.3,1.1C209,220.5,208.2,220.5,207.9,220.5
				z"/>
			<path class="st0" d="M207.9,223c0-0.3,0-1.1,0-1.4c0.3,0,1.1-0.3,1.1,0c0.3,0,0.3,0.3,0,1.1C208.2,223,207.9,223,207.9,223z"/>
			<path class="st0" d="M209.3,221.1c-0.3,0-0.3-0.3,0-1.1c0.3,0,1.1-0.3,1.1,0c0,0,0,0.3,0,1.1
				C209.6,221.1,209.3,221.6,209.3,221.1z"/>
			<path class="st0" d="M206,221.1c-0.3-0.3-0.3-0.3,0-1.1c0,0,0.3-0.3,0.3,0c0.3,0,0,0.3,0,0.3C206.5,221.1,206,221.1,206,221.1z"
				/>
			<path class="st0" d="M190.3,243c0,0,0,0-0.3-0.3v-0.3c0-0.3,0.3,0,0.3,0C190.6,242.3,190.6,242.3,190.3,243z"/>
			<path class="st0" d="M191,243.4h-0.3v-0.3C190.6,243,190.6,243,191,243.4z"/>
			<path class="st0" d="M195.7,260.9c-0.3,0-0.3-0.3-0.3-0.3c0.3-0.3,0.3-0.3,1.1-0.3c0,0,0.3,0.3,0,0.3
				C196,260.9,195.7,260.9,195.7,260.9z"/>
			<path class="st0" d="M193.5,261.7c-0.3,0-0.3,0,0-0.3c0,0,0,0,0.3,0c0,0,0,0,0,0.3C194,261.7,193.5,262,193.5,261.7z"/>
			<path class="st0" d="M194.3,260.5c-0.3,0-0.3-0.3-0.3-0.3c0-0.3,0.3-0.3,0.3-0.3c0.3,0,0.3,0.3,0.3,0.3
				C194.3,260.5,194.3,260.5,194.3,260.5z"/>
			<path class="st0" d="M192.9,259.4c0-0.3,0.3-0.3,0.3-0.3v0.3C193.5,259.4,193.5,260.2,192.9,259.4z"/>
			<path class="st0" d="M192.1,259.1c-0.3,0-0.3,0,0-0.3C192.1,258.8,192.5,259.1,192.1,259.1z"/>
			<path class="st0" d="M190.6,258.8c0,0,0,0,0-0.3c0.3,0,0.3,0,0.3,0.3C190.6,258.8,190.6,258.8,190.6,258.8z"/>
			<path class="st0" d="M192.1,260.9c0,0,0,0,0-0.3h0.3v0.3C192.5,260.9,192.5,260.9,192.1,260.9z"/>
			<path class="st0" d="M221.8,231.6c0-0.3,0-1.1,0-1.1c0.3-0.3,1.1-1.1,1.1-0.3c0,0,0,0.3,0,1.1
				C222.2,231.2,222.2,231.6,221.8,231.6z"/>
			<path class="st0" d="M220.4,230.5v-0.3c0.3-0.3,1.1-0.3,1.1-0.3s0,0.3,0,1.1C220.7,230.5,220.7,230.9,220.4,230.5z"/>
			<path class="st0" d="M219,229.3c0-0.3,0-0.3,0.3-1.1c0,0,0,0,0.3,0v0.3C219.3,229.3,219.3,229.3,219,229.3z"/>
			<path class="st0" d="M222.5,229.8v-0.3c0.3-0.3,0.3-0.3,1.1,0v0.3C223.3,230.5,223.3,230.5,222.5,229.8z"/>
			<path class="st0" d="M221.8,229c-0.3,0-0.3,0,0-0.3h0.3v0.3C222.2,229,221.8,229.3,221.8,229z"/>
			<path class="st0" d="M217.9,230.5c0,0,0,0,0-0.3c0.3,0,0.3-0.3,0.3,0c0.3,0,0.3,0,0,0.3C218.7,230.5,217.9,230.9,217.9,230.5z"/>
			<path class="st0" d="M216.8,229.3c0,0,0-0.3,0.3-0.3c0.3,0,0.3,0,0,0.3C217.2,229.3,217.2,229.3,216.8,229.3z"/>
			<path class="st0" d="M220.1,227.9c0,0,0,0,0-0.3c0.3,0,0.3,0,0.3,0c0.3,0,0.3,0.3,0,0.3C220.4,227.9,220.4,228.4,220.1,227.9z"/>
			<path class="st0" d="M218.7,227.9c-0.3,0-0.3-0.3,0-0.3C218.7,227.9,218.7,227.9,218.7,227.9z"/>
			<path class="st0" d="M215.8,230.9c0,0,0,0,0-0.3c0.3,0,0.3,0,0.3,0s0,0,0,0.3H215.8z"/>
			<path class="st0" d="M217.2,231.6c0,0,0,0,0-0.3h0.3c0,0,0,0,0,0.3H217.2z"/>
			<path class="st0" d="M200,251.7c-0.3,0-1.1-0.3-1.1-1.1s0.3-0.3,1.1-0.3c0.3,0,1.1,0,1.1,0.3S200.3,251.7,200,251.7z"/>
			<path class="st0" d="M206.8,205.8c0.3,0.3,1.1,0.3,1.1,1.1l-0.3,1.1l-1.1-1.4L206.8,205.8z"/>
			<path class="st0" d="M208.2,207.2l1.1,0.3l-0.3,1.1l-1.1-1.1L208.2,207.2z"/>
			<path class="st0" d="M209.6,208l0.3,1.1l-0.3,0.3l-0.3-0.8L209.6,208z"/>
			<path class="st0" d="M210.8,209.4l0.8,1.1l-0.3,0.3l-1.1-1.1L210.8,209.4z"/>
			<path class="st0" d="M212.2,211.1v1.1l-0.8-1.1H212.2z"/>
			<path class="st0" d="M212.5,206.1l0.3,1.1l-0.8,0.3l-0.8-1.1L212.5,206.1z"/>
			<path class="st0" d="M212.2,204.6v1.1l-0.8,0.3l-0.3-1.1L212.2,204.6z"/>
			<path class="st0" d="M213.6,207.7v1.1l-0.8,0.3l-0.3-1.1L213.6,207.7z"/>
			<path class="st0" d="M213.9,209.4v1.1v0.3l-0.3-1.4H213.9z"/>
			<path class="st0" d="M201.4,181.4c1.4-1.1,3.2-1.4,3.6-1.4l0.3,1.1C203.6,181.1,201.4,181.4,201.4,181.4z"/>
			<path class="st0" d="M202.8,184.4c1.7-0.3,3.6,0,4.3,1.1l-1.1,1.1C205.4,185.3,202.8,184.4,202.8,184.4z"/>
			<path class="st0" d="M217.6,241.5v0.3h-0.3l-0.5-0.3H217.6z"/>
			<path class="st0" d="M216.1,242v0.3h-1.4V242H216.1z"/>
			<path class="st0" d="M216.8,239.8l-1.1-0.8v0.8H216.8z"/>
			<path class="st0" d="M214.7,239.2v0.8h-0.8v-0.8H214.7z"/>
			<path class="st0" d="M213.6,238.7l-0.8,1.1H212v-1.1H213.6z"/>
			<path class="st0" d="M211.4,238.4l-0.3,0.8h-1.4l0.3-1.4L211.4,238.4z"/>
			<path class="st0" d="M212.2,241.5l-1.1,0.3l1.1,1.4l0.3-0.3L212.2,241.5z"/>
			<path class="st0" d="M213.6,243l-0.8-1.1h1.1l0.3,0.3L213.6,243z"/>
			<path class="st0" d="M188.9,253.7c0.3,0,0.3-0.3,0-1.1c0,0-0.3-0.3-1.1,0c0,0,0,0.3,0.3,1.1C188.1,253.7,188.9,254.2,188.9,253.7
				z"/>
			<path class="st0" d="M189.5,255.6c0.3-0.3,0.3-0.3,0-1.1c0-0.3-0.3-0.3-0.3-0.3c-0.3,0-0.3,0.3,0,1.1L189.5,255.6z"/>
			<path class="st0" d="M189.5,253.1c0.3,0,0.3-0.3,0-1.1c0,0-0.3-0.3-0.3,0v0.3C189.2,253.1,189.5,253.1,189.5,253.1z"/>
			<path class="st0" d="M190.6,254.2c0,0,0,0,0-0.3h-0.3c0,0,0,0,0,0.3H190.6z"/>
			<path class="st0" d="M190.6,252.3V252c0,0-0.3-0.3-0.3,0c0,0,0,0,0,0.3H190.6z"/>
			<path class="st0" d="M191.4,251.7c0-0.3,0-0.3,0-0.3l-0.3-0.3c0,0.3,0,0.3,0,0.3C191.4,251.2,191.4,251.7,191.4,251.7z"/>
			<path class="st0" d="M188.9,251.7c0.3,0,0.3-0.3,0-1.1c0-0.3-0.3-0.3-0.3-0.3c-0.3,0-0.3,0.3,0,1.1
				C188.1,251.7,188.9,251.7,188.9,251.7z"/>
			<path class="st0" d="M189.5,250.9c0.3,0,0.3-0.3,0-1.1h-0.3v0.3C189.2,250.9,189.5,250.9,189.5,250.9z"/>
			<path class="st0" d="M190.6,249.8c0,0,0,0,0-0.3c0,0,0,0-0.3,0c0,0,0,0,0,0.3C190.6,249.8,190.6,249.8,190.6,249.8z"/>
			<path class="st0" d="M193.5,227.6h-0.8l0.8,0.3h0.3L193.5,227.6z"/>
			<path class="st0" d="M194,228.4v-0.3l1.1,1.1l-0.8,0.3L194,228.4z"/>
			<path class="st0" d="M195.4,229l-0.3,0.3l0.8,1.1l0.3-0.8L195.4,229z"/>
			<path class="st0" d="M196,230.5l-0.3,0.3l1.1,0.8l0.3-0.3L196,230.5z"/>
			<path class="st0" d="M198.2,226.5l-0.8,1.1l-1.4-0.3l0.8-1.1L198.2,226.5z"/>
			<path class="st0" d="M196,226.2l-0.3,1.1l-0.8-1.1v-0.3L196,226.2z"/>
			<path class="st0" d="M194.3,225.9H194l0.3,0.3V225.9z"/>
			<path class="st0" d="M198.6,226.5l-0.3,1.4h1.4l0.3-0.8L198.6,226.5z"/>
		</g>
	</g>
</g>
</svg>
