<svg version="1.1" id="Layer_1" xmlns="http://www.w3.org/2000/svg" xmlns:xlink="http://www.w3.org/1999/xlink" x="0px" y="0px" viewBox="-733.7 396 648.7 162.5" style="enable-background:new -733.7 396 648.7 162.5;" xml:space="preserve">
 <style type="text/css">
  .st0{filter:url(#Adobe_OpacityMaskFilter);}
	.st1{fill:#FFFFFF;}
	.st2{mask:url(#b);fill:#FFD400;}
	.st3{filter:url(#Adobe_OpacityMaskFilter_1_);}
	.st4{mask:url(#d);fill:#66B24C;}
	.st5{filter:url(#Adobe_OpacityMaskFilter_2_);}
	.st6{mask:url(#f);fill:#004FB6;}
	.st7{filter:url(#Adobe_OpacityMaskFilter_3_);}
	.st8{mask:url(#h);fill:#004FB6;}
	.st9{filter:url(#Adobe_OpacityMaskFilter_4_);}
	.st10{mask:url(#j);fill:#004FB6;}
	.st11{filter:url(#Adobe_OpacityMaskFilter_5_);}
	.st12{mask:url(#l);fill:#004FB6;}
	.st13{filter:url(#Adobe_OpacityMaskFilter_6_);}
	.st14{mask:url(#n);fill:#004FB6;}
	.st15{filter:url(#Adobe_OpacityMaskFilter_7_);}
	.st16{mask:url(#p);fill:#004FB6;}
 </style>
 <g>
  <g transform="translate(14.182)">
   <defs>
    <filter id="Adobe_OpacityMaskFilter" filterUnits="userSpaceOnUse" x="-678.3" y="396" width="71.9" height="145.5">
     <feColorMatrix type="matrix" values="1 0 0 0 0  0 1 0 0 0  0 0 1 0 0  0 0 0 1 0">
     </feColorMatrix>
    </filter>
   </defs>
   <mask maskUnits="userSpaceOnUse" x="-678.3" y="396" width="71.9" height="145.5" id="b">
    <g class="st0">
     <path id="a" class="st1" d="M-642.3,423.2l-8.8,91.1c5.8-0.6,11.7-1.1,17.5-1.5L-642.3,423.2L-642.3,423.2z">
     </path>
    </g>
   </mask>
   <path class="st2" d="M-678.3,541.5h71.9V396h-71.9V541.5z">
   </path>
  </g>
  <g transform="translate(16.545)">
   <defs>
    <filter id="Adobe_OpacityMaskFilter_1_" filterUnits="userSpaceOnUse" x="-671.8" y="396.1" width="84.3" height="143.8">
     <feColorMatrix type="matrix" values="1 0 0 0 0  0 1 0 0 0  0 0 1 0 0  0 0 0 1 0">
     </feColorMatrix>
    </filter>
   </defs>
   <mask maskUnits="userSpaceOnUse" x="-671.8" y="396.1" width="84.3" height="143.8" id="d">
    <g class="st3">
     <path id="c" class="st1" d="M-644.6,423.3l8.7,89.4c7.1-0.4,14.1-0.6,21.2-0.7l0-88.8H-644.6L-644.6,423.3z">
     </path>
    </g>
   </mask>
   <path class="st4" d="M-671.8,539.9h84.3V396.1h-84.3V539.9z">
   </path>
  </g>
  <defs>
   <filter id="Adobe_OpacityMaskFilter_2_" filterUnits="userSpaceOnUse" x="-733.7" y="396" width="132.8" height="162.5">
    <feColorMatrix type="matrix" values="1 0 0 0 0  0 1 0 0 0  0 0 1 0 0  0 0 0 1 0">
    </feColorMatrix>
   </filter>
  </defs>
  <mask maskUnits="userSpaceOnUse" x="-733.7" y="396" width="132.8" height="162.5" id="f">
   <g class="st5">
    <path id="e" class="st1" d="M-706.5,423.2l0,108.2c18.4-8.1,42.4-14.1,69.6-17.1l8.8-91.1v0L-706.5,423.2z">
    </path>
   </g>
  </mask>
  <path class="st6" d="M-733.7,558.5h132.8V396h-132.8V558.5z">
  </path>
  <g transform="translate(75.636)">
   <defs>
    <filter id="Adobe_OpacityMaskFilter_3_" filterUnits="userSpaceOnUse" x="-461.7" y="396.6" width="86.4" height="142.7">
     <feColorMatrix type="matrix" values="1 0 0 0 0  0 1 0 0 0  0 0 1 0 0  0 0 0 1 0">
     </feColorMatrix>
    </filter>
   </defs>
   <mask maskUnits="userSpaceOnUse" x="-461.7" y="396.6" width="86.4" height="142.7" id="h">
    <g class="st7">
     <path id="g" class="st1" d="M-434.5,423.8v2.8c1.9,0.3,8.8,2.3,8.8,7.2v78.3h23.3v-88.4L-434.5,423.8L-434.5,423.8z">
     </path>
    </g>
   </mask>
   <path class="st8" d="M-461.7,539.3h86.4V396.6h-86.4V539.3z">
   </path>
  </g>
  <g transform="translate(29.545)">
   <defs>
    <filter id="Adobe_OpacityMaskFilter_4_" filterUnits="userSpaceOnUse" x="-626.8" y="396.6" width="155.6" height="142.7">
     <feColorMatrix type="matrix" values="1 0 0 0 0  0 1 0 0 0  0 0 1 0 0  0 0 0 1 0">
     </feColorMatrix>
    </filter>
   </defs>
   <mask maskUnits="userSpaceOnUse" x="-626.8" y="396.6" width="155.6" height="142.7" id="j">
    <g class="st9">
     <path id="i" class="st1" d="M-571.4,423.8v2.8c2.8,0.6,8.9,2.3,6.4,7.8l-34.7,77.7h18.3l10.9-24.2h38.4l9.5,24.2h24.1
					l-34.4-88.3L-571.4,423.8L-571.4,423.8z M-549.9,442.2l13.6,34.7h-29.2L-549.9,442.2z">
     </path>
    </g>
   </mask>
   <path class="st10" d="M-626.8,539.3h155.6V396.6h-155.6V539.3z">
   </path>
  </g>
  <g transform="translate(106.364)">
   <defs>
    <filter id="Adobe_OpacityMaskFilter_5_" filterUnits="userSpaceOnUse" x="-346.9" y="396.6" width="155.6" height="142.7">
     <feColorMatrix type="matrix" values="1 0 0 0 0  0 1 0 0 0  0 0 1 0 0  0 0 0 1 0">
     </feColorMatrix>
    </filter>
   </defs>
   <mask maskUnits="userSpaceOnUse" x="-346.9" y="396.6" width="155.6" height="142.7" id="l">
    <g class="st11">
     <path id="k" class="st1" d="M-291.5,423.8v2.8c2.8,0.6,8.9,2.3,6.4,7.8l-34.7,77.7h18.3l10.8-24.2h38.4l9.5,24.2h24.1
					l-34.5-88.3H-291.5z M-270,442.2l13.6,34.8h-29.2L-270,442.2L-270,442.2z">
     </path>
    </g>
   </mask>
   <path class="st12" d="M-346.9,539.3h155.6V396.6h-155.6V539.3z">
   </path>
  </g>
  <g transform="translate(85.09)">
   <defs>
    <filter id="Adobe_OpacityMaskFilter_6_" filterUnits="userSpaceOnUse" x="-425.2" y="396.6" width="157.1" height="142.7">
     <feColorMatrix type="matrix" values="1 0 0 0 0  0 1 0 0 0  0 0 1 0 0  0 0 0 1 0">
     </feColorMatrix>
    </filter>
   </defs>
   <mask maskUnits="userSpaceOnUse" x="-425.2" y="396.6" width="157.1" height="142.7" id="n">
    <g class="st13">
     <path id="m" class="st1" d="M-312.7,423.8l-27,64.8l-25.7-64.8h-32.7v2.8c3.8,0.7,8,2.3,9.9,7.2l31,78.3h25l36.8-88.4
					L-312.7,423.8L-312.7,423.8z">
     </path>
    </g>
   </mask>
   <path class="st14" d="M-425.2,539.3h157.1V396.6h-157.1V539.3z">
   </path>
  </g>
  <g transform="translate(49.636)">
   <defs>
    <filter id="Adobe_OpacityMaskFilter_7_" filterUnits="userSpaceOnUse" x="-551" y="396.6" width="157.1" height="142.7">
     <feColorMatrix type="matrix" values="1 0 0 0 0  0 1 0 0 0  0 0 1 0 0  0 0 0 1 0">
     </feColorMatrix>
    </filter>
   </defs>
   <mask maskUnits="userSpaceOnUse" x="-551" y="396.6" width="157.1" height="142.7" id="p">
    <g class="st15">
     <path id="o" class="st1" d="M-438.5,423.8l-27,64.8l-25.7-64.8h-32.7v2.8c3.8,0.7,8,2.3,10,7.2l31,78.3h25l36.8-88.4
					L-438.5,423.8L-438.5,423.8z">
     </path>
    </g>
   </mask>
   <path class="st16" d="M-551,539.3H-394V396.6H-551V539.3z">
   </path>
  </g>
 </g>
</svg>