<svg xmlns="http://www.w3.org/2000/svg" aria-hidden="true" fill="none" focusable="false" height="44" viewBox="0 0 46 44" width="46">
<g>
<path d="M10.7179 42.4665L9.84294 41.8565C9.47205 37.4607 8.09292 34.7963 7.36195 33.4237C8.14153 32.9106 9.43604 31.7282 9.43604 30.0309C9.43604 28.3336 8.04611 27.4382 8.04611 25.3372C8.04611 24.1782 8.44221 23.2111 9.08856 22.4593C8.66906 21.8618 8.17754 21.5389 7.44657 21.5389C6.63097 21.5389 5.9 22.2081 5.9 23.2344C5.9 23.8319 6.16286 24.4886 6.7264 24.7756C6.3195 25.3372 5.27525 25.3964 4.70092 24.5478H4.68831C4.68831 26.5537 6.82182 27.9514 6.82182 30.0901C6.82182 31.4752 5.71996 32.8137 4.12478 32.8137C2.9383 32.8137 1.82383 32.2647 1.2477 31.1648C2.54221 31.4985 3.47663 30.9854 3.47663 29.8389C3.47663 27.7612 0 25.7176 0 22.183C0 19.4002 2.14611 17.859 4.59109 17.859C6.82002 17.859 8.80949 18.887 10.3092 21.4671C11.0762 20.893 12.0107 20.5718 12.9577 20.3798C15.5107 19.8775 18.6398 20.3314 21.0362 19.3159C22.1038 18.8619 22.9897 18.0617 22.9897 17.1413C22.9897 16.6999 22.7376 16.4362 22.3775 16.4362C22.1975 16.4362 21.922 16.5205 21.7654 16.9134C21.2973 16.5079 21.1532 16.0773 21.1532 15.6467C21.1532 14.9308 21.3801 14.5953 21.6321 14.249C21.3927 13.6282 20.6491 13.4847 20.145 14.0929C19.522 12.9464 19.9055 11.3693 21.5241 10.8921V10.8795C19.6301 10.5691 19.1277 9.39927 19.342 8.09668C19.522 8.25277 19.7255 8.34787 19.9289 8.34787C20.2404 8.34787 20.4331 8.09668 20.4331 7.73784C20.4331 7.35567 20.2422 6.7582 19.2592 6.10152C20.1216 4.81148 21.6087 4.6195 22.3631 5.09856L22.3757 5.086C21.9922 4.56029 21.7996 3.63986 22.4117 2.732C22.5558 2.93474 22.9032 3.23437 23.4434 3.23437C25.0259 3.23437 25.0854 1.50296 26.2952 1.3361C26.2232 1.87436 26.3673 2.62614 27.0388 2.62614C27.9138 2.62614 28.3207 1.31278 28.5368 0.5C28.9203 0.715305 29.1957 1.08491 29.1363 1.77748H29.1489L29.6765 0.715305C30.1194 1.08491 30.204 1.7075 30.0599 2.2673C30.0239 2.41083 29.9753 2.51848 29.9753 2.60102C29.9753 3.01907 31.2338 3.32947 31.2338 4.26066C31.2338 4.41676 31.1852 4.58362 31.1132 4.7738L33.9903 8.39272C34.1703 8.61879 34.2297 8.85922 34.2297 9.06196C34.2297 9.81374 33.5708 10.614 32.6237 10.614C31.6767 10.614 31.3526 10.1008 31.3058 9.86218L28.8014 8.64391C28.6574 8.88254 28.49 9.27727 28.49 9.71864C28.49 12.4656 32.3861 12.5373 33.3331 16.1329L37.1932 14.8555C39.9497 17.5306 42.8628 20.1233 44.6614 21.1854L45.7993 22.6316H42.3479V21.6286L41.4008 21.3666C39.9497 19.097 37.9854 17.8554 36.9304 17.545C35.6485 18.3219 34.6888 19.1329 33.5618 20.387C35.3964 20.2435 37.4453 20.4229 39.1593 20.7458L38.2609 28.4269L37.5299 30.3969L35.5891 32.0458V28.6529H36.6315L36.3434 27.5782C37.195 25.3318 37.3031 23.8283 37.3031 23.0155C37.3031 22.7643 37.2905 22.5257 37.2076 22.4414C37.1356 22.3696 36.8368 22.4414 36.5721 22.5131C35.8771 22.7051 34.7374 23.2416 33.2755 24.424C31.9576 25.4987 31.2374 25.9885 29.4514 25.7858C27.4385 27.8635 23.1715 28.8682 19.4302 28.8198C19.1421 31.8412 15.7862 33.5852 15.7862 35.0188C15.7862 35.5319 16.2777 36.368 17.3561 37.981C18.5552 39.7734 19.6931 41.4923 21.1082 42.0431L22.3073 43.5H18.8433L18.8199 42.4612L17.8368 41.9229C16.7098 39.8452 14.949 37.5504 12.5274 35.4009C13.1143 34.2311 13.4258 33.0362 13.4384 31.9004C12.3473 33.5368 10.754 33.5493 10.4659 34.7909C10.3579 35.2574 10.4173 36.1653 10.6693 37.3351C11.0402 39.1024 11.3769 41.2052 13.0189 42.018L14.1568 43.5H10.7161V42.4612L10.7179 42.4665Z" fill="black"></path>
<path d="M4.74768 18.8278C5.46605 18.8278 6.48509 18.9947 7.19266 19.6514C5.51466 18.8871 3.02106 19.3894 2.84102 21.4079C2.55295 21.0975 2.45753 20.7153 2.43413 20.3798C1.81118 20.6669 1.34307 21.5263 1.22424 22.4468C0.732721 20.2489 2.51875 18.8278 4.74768 18.8278ZM14.0379 21.2177C16.364 20.9307 19.5274 21.1944 22.1164 19.9151C23.3263 19.3177 24.5488 18.3147 24.5488 16.9529C24.5488 15.3166 22.5233 13.7036 22.5233 10.2282C22.5233 7.95853 23.5297 5.34257 26.1908 3.92156C24.5002 5.37846 23.6972 7.05066 23.6972 9.0817C23.6972 11.1127 24.5002 13.2748 27.2098 14.3369C29.1273 15.0887 30.9133 15.1138 31.6803 16.7017C30.9979 16.1634 30.1337 15.9858 29.5234 15.9858C25.6272 15.9858 24.1527 23.2488 19.5868 25.3139C20.5572 22.793 17.6333 21.9821 14.9363 22.0413C12.7308 22.0897 9.36217 22.6872 9.32616 26.1626C8.70322 23.8337 10.0445 21.7075 14.0361 21.2177H14.0379ZM32.0656 9.44054C32.0656 9.2378 32.1862 8.89152 32.1862 8.59188C32.1862 8.43579 32.1502 8.2456 31.9593 7.94776C31.6839 7.52971 31.1564 6.80126 30.6522 6.263C29.9807 5.55788 29.3937 5.35513 28.4827 5.41434C29.2263 5.00885 29.3937 4.62668 29.3937 4.19607C29.3937 3.82647 29.1903 3.43174 28.8536 3.06213C29.3325 3.14646 30.6162 3.67216 30.6162 4.36473C30.6162 4.50827 30.5442 4.63924 30.4002 4.78278L33.4807 8.62956C33.3727 8.79642 33.1332 8.72466 32.9298 8.72466C32.7983 8.72466 32.7137 8.80898 32.7137 8.95252C32.7137 9.21447 32.9172 9.53743 33.0378 9.71685C32.9424 9.77606 32.7623 9.84783 32.5697 9.84783C32.3302 9.84783 32.0656 9.7635 32.0656 9.44234V9.44054Z" style="fill: #006A4D !important"></path>
</g>
</svg>