<svg version="1.1" id="Layer_1" xmlns="http://www.w3.org/2000/svg" xmlns:xlink="http://www.w3.org/1999/xlink" x="0px" y="0px" viewBox="0 0 116 69.8" style="enable-background:new 0 0 116 69.8;" xml:space="preserve">
 <style type="text/css">
  .st0{filter:url(#Adobe_OpacityMaskFilter);}
	.st1{fill-rule:evenodd;clip-rule:evenodd;fill:#FFFFFF;}
	.st2{mask:url(#b_1_);fill-rule:evenodd;clip-rule:evenodd;fill:#231F20;}
	.st3{fill-rule:evenodd;clip-rule:evenodd;fill:#231F20;}
	.st4{filter:url(#Adobe_OpacityMaskFilter_1_);}
	.st5{mask:url(#d_1_);fill-rule:evenodd;clip-rule:evenodd;fill:#231F20;}
 </style>
 <g>
  <g transform="translate(0 .052)">
   <defs>
    <filter id="Adobe_OpacityMaskFilter" filterUnits="userSpaceOnUse" x="0" y="-0.1" width="116" height="44">
     <feColorMatrix type="matrix" values="1 0 0 0 0  0 1 0 0 0  0 0 1 0 0  0 0 0 1 0">
     </feColorMatrix>
    </filter>
   </defs>
   <mask maskUnits="userSpaceOnUse" x="0" y="-0.1" width="116" height="44" id="b_1_">
    <g class="st0">
     <path id="a_1_" class="st1" d="M0-0.1h116v44H0V-0.1z">
     </path>
    </g>
   </mask>
   <path class="st2" d="M115.7,9.6l-3.5,1.3c-1.4-4.5-5.4-7.4-10.7-7.4c-5.8,0-9.7,2.9-9.7,7.9c0,10.7,24.2,5,24.2,20
			c0,7.2-5.7,12.2-14.2,12.2c-7.9,0-12.7-3.8-16-9.9l3.3-2c2.2,4.7,6.2,8.3,12.3,8.3c7.1,0,10.7-3.2,10.7-8.6
			c0-10.7-24.2-5.5-24.2-20c0-8.6,7.7-11.5,13.5-11.5C107.8-0.1,113.6,2.9,115.7,9.6z M56.1,9.8c0,2.4,1.6,4.4,5.1,8.2
			c4.1-2.4,6.3-4.9,6.3-8.2c0-3.2-2.1-5.7-5.8-5.7C58.3,4.1,56.1,6.8,56.1,9.8z M60.2,22.4c-5.5,3.1-8,5.5-8,9.3c0,4.4,3.9,8,8.9,8
			c4.5,0,6.8-2.1,9.3-6.1L60.2,22.4L60.2,22.4z M79.9,43.9l-7.1-7.6c-2.6,4-6,7-11.8,7c-7.4,0-12.8-5.1-12.8-11.5
			c0-5.3,3.2-8.5,9.4-12.1c-3.5-3.6-5.5-6.5-5.5-10c0-5.1,4.3-9.1,9.4-9.1c5.5,0,9.6,4,9.6,9.1c0,4.9-3.8,8.2-7.7,10.7l8.8,9.6
			l5.2-8.5l3.1,2L74.9,33l7.9,8.4L79.9,43.9L79.9,43.9z M38.5,0.5v42.8h-3.9V8.3l-14,27.3h-2.7L3.9,8.4v34.9H0V0.5h4.1L19.3,30
			L34.5,0.5H38.5z">
   </path>
  </g>
  <path class="st3" d="M69.2,68.7c-1.1,0-2-0.6-2-1.7c0-1.1,0.9-1.6,2-1.6c1,0,2,0.5,2,1.6C71.2,68.2,70.3,68.7,69.2,68.7 M67.4,63
		c0-0.9,0.6-1.5,1.7-1.5c1.1,0,1.7,0.6,1.7,1.5c0,0.9-0.9,1.4-1.7,1.4C68.2,64.4,67.4,63.9,67.4,63 M70.8,64.9
		c0.8-0.4,1.2-1.1,1.2-2c0-1.6-1.3-2.4-2.9-2.4c-1.6,0-2.9,0.8-2.9,2.4c0,0.9,0.4,1.5,1.2,2c-0.8,0.4-1.5,1.1-1.5,2.1
		c0,1.6,1.1,2.7,3.1,2.7c2,0,3.1-1.1,3.1-2.7C72.3,66,71.7,65.3,70.8,64.9 M77.8,68.7c-1.1,0-2-0.6-2-1.7c0-1.1,0.9-1.6,2-1.6
		c1,0,2,0.5,2,1.6C79.8,68.2,78.9,68.7,77.8,68.7 M76.1,63c0-0.9,0.6-1.5,1.7-1.5c1.1,0,1.7,0.6,1.7,1.5c0,0.9-0.9,1.4-1.7,1.4
		C76.9,64.4,76.1,63.9,76.1,63 M79.5,64.9c0.8-0.4,1.2-1.1,1.2-2c0-1.6-1.3-2.4-2.9-2.4c-1.6,0-2.9,0.8-2.9,2.4c0,0.9,0.4,1.5,1.2,2
		c-0.8,0.4-1.5,1.1-1.5,2.1c0,1.6,1.1,2.7,3.1,2.7c2,0,3.1-1.1,3.1-2.7C81,66,80.3,65.3,79.5,64.9 M28.6,65.6h4.2v-1.1h-4.2v-2.8
		h4.5v-1.1h-5.6v9h5.9v-1.1h-4.7L28.6,65.6z">
  </path>
  <g transform="translate(18.165 31.366)">
   <defs>
    <filter id="Adobe_OpacityMaskFilter_1_" filterUnits="userSpaceOnUse" x="17.3" y="29.1" width="6.6" height="9.3">
     <feColorMatrix type="matrix" values="1 0 0 0 0  0 1 0 0 0  0 0 1 0 0  0 0 0 1 0">
     </feColorMatrix>
    </filter>
   </defs>
   <mask maskUnits="userSpaceOnUse" x="17.3" y="29.1" width="6.6" height="9.3" id="d_1_">
    <g class="st4">
     <path id="c_1_" class="st1" d="M17.3,29.1h6.6v9.3h-6.6V29.1z">
     </path>
    </g>
   </mask>
   <path class="st5" d="M21,33.1L21,33.1c-1.3-0.4-2-0.6-2-1.5c0-0.9,0.7-1.4,1.8-1.4c1,0,1.7,0.5,2,1.3l0.1,0.2l1-0.4l-0.1-0.3
			c-0.6-1.7-2.2-2-3.1-2c-2.3,0-2.9,1.6-2.9,2.5c0,1.7,1.5,2.2,2.9,2.6l0,0c1.3,0.4,2.1,0.7,2.1,1.5c0,0.9-0.8,1.6-2,1.6
			c-1.2,0-2-0.5-2.5-1.4l-0.1-0.3l-1,0.6l0.1,0.2c0.7,1.3,1.8,2,3.4,2c1.8,0,3.1-1.1,3.1-2.7C23.9,33.9,22.4,33.5,21,33.1">
   </path>
  </g>
  <path class="st3" d="M53.4,68.2c-0.4,0-0.8,0.3-0.8,0.8c0,0.4,0.3,0.8,0.8,0.8c0.4,0,0.8-0.3,0.8-0.8
		C54.1,68.5,53.8,68.2,53.4,68.2 M60.7,61.7h1.1v7.9h1.2v-9h-2.3V61.7z M87.7,66.3h-3.1l0-0.1l3-4.2L87.7,66.3L87.7,66.3z M90,66.5
		l-1.2-0.1v-5.8h-1.3l-4.4,6.1v0.8h4.6v2.1h1.1v-2.1H90C90,67.4,90,66.5,90,66.5z M44.2,61.7H47v7.9h1.2v-7.9h2.7v-1.1h-6.6V61.7z">
  </path>
 </g>
</svg>